<svg width="52" height="52" viewBox="0 0 52 52" fill="none" xmlns="http://www.w3.org/2000/svg">
<circle cx="26" cy="26" r="25.5" stroke="#DB771A"/>
<g clip-path="url(#clip0_4254_28125)">
<path d="M17.927 31.3818C17.7922 31.1862 17.6694 30.9826 17.559 30.7723V30.7727C17.0584 29.8182 16.8046 28.7021 16.8046 27.4552C16.8046 25.348 17.5102 23.1251 18.7914 21.1962C19.2924 20.4376 19.8812 19.741 20.5457 19.1206C21.1687 18.5374 21.8661 18.039 22.6196 17.6385C22.4262 17.4299 22.3187 17.1561 22.3184 16.8717V16.8256C22.319 16.6131 22.3792 16.405 22.4921 16.225C22.6026 16.0474 22.7573 15.9016 22.9412 15.8018C22.8261 15.4213 22.6888 14.9847 22.556 14.5624L22.5547 14.5582C21.8989 12.4723 21.6176 11.5177 21.6756 11.1309C21.7484 10.6461 22.144 10.1279 23.0359 10.1279C23.3964 10.1364 23.7531 10.2042 24.0916 10.3284C24.5983 10.5032 25.6047 10.7059 26.193 10.7161C26.7784 10.7061 27.7855 10.5022 28.2943 10.3269C28.6323 10.2031 28.9884 10.1356 29.3483 10.1272C30.2413 10.1272 30.6375 10.6462 30.7105 11.1318C30.7684 11.5188 30.4871 12.4731 29.8316 14.5587L29.8313 14.5598C29.6926 15.001 29.5616 15.4175 29.4486 15.7911C29.6336 15.8882 29.7889 16.0336 29.898 16.2118C30.0112 16.3966 30.0709 16.6091 30.0707 16.8258V16.8721C30.0723 17.1575 29.9676 17.4333 29.777 17.6458C30.5276 18.0465 31.2222 18.5442 31.8429 19.1262C32.5047 19.745 33.0914 20.4396 33.5908 21.1957C34.1655 22.0585 34.6286 22.9907 34.9691 23.9698C35.298 24.9076 35.4968 25.8859 35.5602 26.8776C35.3939 26.9118 35.2325 26.9667 35.0797 27.041C34.9265 27.1156 34.7833 27.2091 34.6533 27.3194C34.645 26.8403 34.5994 26.3625 34.517 25.8905C34.4322 25.4046 34.3127 24.9255 34.1594 24.4568C34.002 23.9758 33.8121 23.5062 33.5908 23.0511C33.3648 22.5862 33.1079 22.137 32.8218 21.7064C32.5313 21.2682 32.2096 20.8514 31.8594 20.4593C31.5238 20.0837 31.16 19.7342 30.7711 19.414C30.399 19.1076 30.0019 18.8328 29.5841 18.5925C29.1832 18.362 28.7617 18.1692 28.3252 18.0165H24.0569C23.6203 18.1692 23.1989 18.3621 22.7979 18.5926C22.3801 18.833 21.983 19.1078 21.6109 19.4143C21.222 19.7345 20.8583 20.084 20.5228 20.4597C20.1725 20.8519 19.8508 21.2687 19.5603 21.7069C18.3783 23.4865 17.7275 25.528 17.7277 27.4552C17.7229 28.0675 17.8 28.6777 17.957 29.2696C18.1028 29.81 18.334 30.3236 18.642 30.7909C18.4055 30.971 18.1651 31.1698 17.9272 31.3821L17.927 31.3818ZM23.4857 16.5855C23.4222 16.5872 23.3617 16.6129 23.3163 16.6574C23.2709 16.7018 23.244 16.7618 23.241 16.8253V16.8715C23.245 16.933 23.2728 16.9905 23.3184 17.0319C23.364 17.0732 23.424 17.0952 23.4856 17.0931H28.4018H28.9288C28.958 17.0939 28.9871 17.0887 29.0142 17.0779C29.0413 17.067 29.0659 17.0506 29.0864 17.0298C29.1069 17.009 29.1229 16.9842 29.1335 16.957C29.144 16.9297 29.1488 16.9006 29.1476 16.8714V16.8252C29.1502 16.7645 29.1286 16.7051 29.0876 16.6602C29.0467 16.6153 28.9896 16.5884 28.9288 16.5854H28.8688H23.5171L23.4857 16.5855ZM23.0353 11.0535C22.9451 11.0518 22.8551 11.0637 22.7684 11.0889C22.6651 11.1231 22.6048 11.1807 22.5892 11.2599C22.5874 11.5883 23.0964 13.2074 23.4335 14.2788L23.4346 14.2822L23.4541 14.3442V14.3449C23.6036 14.8202 23.7447 15.2691 23.8622 15.6625H28.5228C28.6473 15.2453 28.8016 14.7552 28.9507 14.2813L28.9511 14.28C29.2882 13.2077 29.7975 11.5876 29.7957 11.259C29.7603 11.0767 29.4999 11.0494 29.3479 11.0494C29.0901 11.0595 28.8357 11.1115 28.5946 11.2034C28.2157 11.3277 27.8291 11.4275 27.4374 11.5022C27.0299 11.5881 26.6155 11.6369 26.1993 11.648H26.1857C25.7688 11.6365 25.3538 11.5879 24.9456 11.5028C24.5545 11.4286 24.1686 11.3292 23.7904 11.2053C23.5485 11.1142 23.2936 11.0629 23.0354 11.0532L23.0353 11.0535Z" fill="#DB771A"/>
<path d="M17.9243 31.593L17.8123 31.475L17.8057 31.4655C17.6677 31.2651 17.5418 31.0567 17.4288 30.8412C16.9171 29.8655 16.6575 28.7263 16.6575 27.4552C16.6575 25.3193 17.3719 23.0675 18.6688 21.1147C19.1762 20.3465 19.7726 19.641 20.4456 19.0127C21.0351 18.4616 21.6897 17.9846 22.3948 17.5923C22.2491 17.3804 22.1711 17.1293 22.1711 16.8721V16.826C22.1718 16.586 22.2397 16.3511 22.3671 16.1477C22.4694 15.9833 22.6057 15.8427 22.7669 15.7355C22.6588 15.3807 22.5353 14.9881 22.4155 14.6071L22.4142 14.603C22.0734 13.5189 21.848 12.7856 21.7052 12.2457C21.5505 11.6617 21.4981 11.322 21.5299 11.1096C21.5742 10.81 21.7239 10.536 21.9522 10.337C22.0866 10.222 22.2419 10.134 22.4096 10.0778C22.6117 10.0114 22.8234 9.97877 23.0361 9.98133C23.413 9.98966 23.7861 10.06 24.1401 10.1896C24.4675 10.2947 24.8014 10.3783 25.1397 10.4397C25.487 10.5107 25.8394 10.554 26.1935 10.5695C26.5469 10.5541 26.8986 10.5107 27.2451 10.4397C27.5841 10.3778 27.9187 10.2938 28.2468 10.1883C28.6003 10.0592 28.9726 9.98897 29.3489 9.98061C29.5618 9.97805 29.7737 10.0107 29.976 10.0773C30.144 10.1335 30.2994 10.2216 30.434 10.3368C30.6626 10.5362 30.8125 10.8106 30.8568 11.1108C30.8887 11.3231 30.8363 11.663 30.6817 12.2468C30.5387 12.7867 30.3134 13.5198 29.9727 14.6036L29.9722 14.6051L29.9688 14.6157C29.845 15.0092 29.7277 15.383 29.6238 15.7236C29.7861 15.8295 29.9228 15.9702 30.024 16.1355C30.1515 16.3434 30.2189 16.5826 30.2187 16.8266V16.8728C30.2196 17.1313 30.1436 17.3843 30.0005 17.5996C30.7034 17.992 31.3559 18.4685 31.9436 19.0188C32.6139 19.6455 33.2082 20.349 33.714 21.1147C34.2955 21.9879 34.7642 22.9312 35.1088 23.9222C35.442 24.8727 35.6436 25.8644 35.7078 26.8696L35.7154 26.997L35.5903 27.0228C35.436 27.0545 35.2862 27.1054 35.1446 27.1743C35.0025 27.2436 34.8696 27.3303 34.749 27.4326L34.5111 27.6343L34.5062 27.3224C34.498 26.851 34.4531 26.3809 34.3721 25.9164C34.2885 25.4375 34.1707 24.9653 34.0195 24.5033C33.8643 24.0287 33.6768 23.5653 33.4585 23.1163C33.2353 22.6574 32.9816 22.2139 32.6993 21.7888C32.4126 21.3565 32.0952 20.9454 31.7497 20.5586C31.4191 20.1886 31.0607 19.8443 30.6777 19.5289C30.312 19.2278 29.9217 18.9576 29.511 18.7214C29.1251 18.4996 28.7199 18.3133 28.3003 18.1649H24.0816C23.662 18.3134 23.2567 18.4997 22.8709 18.7215C22.4601 18.9578 22.0699 19.2279 21.7041 19.5292C21.3211 19.8446 20.9627 20.1888 20.6322 20.5589C20.2866 20.9458 19.9693 21.357 19.6826 21.7894C18.5165 23.5451 17.8744 25.5576 17.8747 27.4561C17.87 28.0552 17.9453 28.6523 18.0988 29.2315C18.2405 29.7567 18.4652 30.256 18.7645 30.7103L18.8411 30.8255L18.7311 30.9092C18.4986 31.0862 18.2621 31.2816 18.0283 31.4903L17.9243 31.593ZM17.6895 30.7036C17.771 30.859 17.8606 31.0119 17.956 31.1597C18.1187 31.0181 18.2823 30.8832 18.4444 30.7566C18.165 30.3071 17.9528 29.8191 17.8145 29.3082C17.6541 28.7036 17.5752 28.0803 17.58 27.4548C17.58 25.4989 18.2393 23.4284 19.4372 21.6249C19.7317 21.1808 20.0577 20.7583 20.4127 20.3609C20.7533 19.9796 21.1225 19.6249 21.5172 19.2999C21.8957 18.9882 22.2995 18.7087 22.7245 18.4642C23.1334 18.2291 23.5632 18.0325 24.0084 17.8769L24.032 17.8688H28.3503L28.3739 17.8769C28.8191 18.0325 29.2489 18.2291 29.6578 18.4642C30.0828 18.7086 30.4866 18.9881 30.8651 19.2997C31.2597 19.6247 31.629 19.9793 31.9697 20.3605C32.3246 20.7579 32.6507 21.1803 32.9451 21.6245C33.2347 22.0605 33.4948 22.5155 33.7237 22.9863C33.9479 23.4474 34.1404 23.9233 34.2998 24.4106C34.4554 24.8861 34.5766 25.3721 34.6626 25.8649C34.7298 26.2514 34.773 26.6416 34.7921 27.0335C34.864 26.9873 34.9386 26.9454 35.0155 26.9079C35.1404 26.8472 35.2709 26.7985 35.4051 26.7625C35.3338 25.8263 35.1404 24.9036 34.83 24.0175C34.4935 23.0501 34.036 22.1292 33.4682 21.2767C32.9752 20.5303 32.3961 19.8445 31.7427 19.2336C31.1315 18.6605 30.4475 18.1703 29.7083 17.7758L29.5404 17.6873L29.6679 17.5465C29.8339 17.3612 29.925 17.1207 29.9234 16.8718V16.8256C29.9236 16.6362 29.8714 16.4504 29.7725 16.2888C29.6773 16.1333 29.5419 16.0064 29.3804 15.9216L29.2723 15.865L29.3077 15.7482C29.4198 15.377 29.5499 14.9637 29.6874 14.5263L29.6913 14.514C30.0308 13.4346 30.255 12.7048 30.3965 12.1705C30.5364 11.6425 30.5899 11.3194 30.5651 11.1537C30.5312 10.9231 30.4162 10.7122 30.2407 10.5588C30.1347 10.4684 30.0123 10.3993 29.8801 10.3553C29.7086 10.2994 29.5291 10.2721 29.3487 10.2746C29.0051 10.2831 28.6652 10.3478 28.3426 10.4663C28.0014 10.5767 27.6531 10.6643 27.3003 10.7285C26.9364 10.803 26.5671 10.8482 26.1959 10.8637H26.1909C25.8191 10.8483 25.4492 10.8033 25.0846 10.7291C24.7323 10.6654 24.3846 10.5782 24.0439 10.4681C23.7208 10.3492 23.3802 10.2843 23.036 10.2759C22.8558 10.2733 22.6765 10.3006 22.5052 10.3564C22.3733 10.4004 22.2511 10.4694 22.1454 10.5596C21.9702 10.7126 21.8554 10.9232 21.8216 11.1534C21.7969 11.3189 21.8504 11.6421 21.9903 12.1702C22.1318 12.7047 22.356 13.4346 22.6956 14.5146L22.6969 14.5186C22.8294 14.94 22.9664 15.3757 23.0825 15.7597L23.1172 15.8747L23.0116 15.932C22.8502 16.0196 22.7144 16.1477 22.6174 16.3036C22.5191 16.4603 22.4666 16.6413 22.4659 16.8263V16.8725C22.4664 17.1197 22.56 17.3577 22.7282 17.5389L22.8582 17.6801L22.6884 17.7694C21.9463 18.1639 21.2596 18.6547 20.6461 19.2291C19.9902 19.8415 19.4089 20.5293 18.9144 21.2782C17.6491 23.1833 16.9522 25.3774 16.9522 27.4556C16.9522 28.6782 17.2003 29.7712 17.6895 30.7041L17.6895 30.7036ZM28.9285 17.2407H28.4015H23.4853C23.3852 17.241 23.2885 17.2039 23.2142 17.1368C23.1767 17.1034 23.1465 17.0626 23.1257 17.0169C23.1048 16.9712 23.0938 16.9216 23.0932 16.8714V16.8706V16.8249C23.0941 16.7739 23.105 16.7237 23.1253 16.677C23.1457 16.6304 23.175 16.5882 23.2118 16.5529C23.2846 16.4805 23.3827 16.4393 23.4854 16.4379H23.5165H28.9282C29.028 16.4408 29.1227 16.4832 29.1913 16.5558C29.26 16.6284 29.2971 16.7253 29.2944 16.8251V16.8713C29.2958 16.9692 29.2582 17.0637 29.19 17.134C29.1558 17.1683 29.115 17.1954 29.0702 17.2137C29.0253 17.232 28.9772 17.2412 28.9288 17.2407L28.9285 17.2407ZM23.3882 16.8717C23.3927 16.8937 23.405 16.9133 23.4228 16.9269C23.4407 16.9405 23.4629 16.9472 23.4853 16.9456H28.4015H28.9286C28.9384 16.9465 28.9483 16.9451 28.9575 16.9416C28.9668 16.9381 28.9751 16.9326 28.9819 16.9255C28.9888 16.9184 28.9939 16.9098 28.997 16.9005C29.0001 16.8911 29.0011 16.8812 28.9999 16.8714V16.8252C29.002 16.8036 28.9958 16.782 28.9825 16.7649C28.9693 16.7477 28.9499 16.7362 28.9285 16.7328H28.8685H23.4857C23.4613 16.7347 23.4383 16.7449 23.4206 16.7617C23.4029 16.7786 23.3915 16.801 23.3884 16.8252V16.826L23.3882 16.8717ZM28.6327 15.8103H23.7524L23.721 15.705C23.604 15.3132 23.4633 14.8656 23.314 14.3916L23.2925 14.323C23.123 13.784 22.912 13.1133 22.7425 12.5322C22.4715 11.6037 22.4409 11.3611 22.4416 11.2594V11.2455L22.4443 11.2318C22.4576 11.1626 22.4925 11.0994 22.5439 11.0511C22.5949 11.0043 22.6557 10.9695 22.7219 10.9491C22.8235 10.9189 22.9291 10.9044 23.0351 10.906C23.3097 10.9156 23.581 10.9697 23.8383 11.0661C24.2101 11.1878 24.5894 11.2855 24.9737 11.3584C25.3727 11.4416 25.7782 11.4893 26.1856 11.5008H26.1992C26.6059 11.4897 27.0108 11.4419 27.4089 11.3579C27.794 11.2845 28.174 11.1865 28.5465 11.0644C28.803 10.967 29.0736 10.9122 29.3478 10.9023C29.4542 10.9002 29.5603 10.915 29.6621 10.9464C29.7237 10.9658 29.7808 10.9974 29.8299 11.0394C29.8869 11.0894 29.9258 11.1568 29.9404 11.2312L29.943 11.2448V11.2586C29.9435 11.3604 29.913 11.6031 29.6419 12.5326C29.4722 13.1143 29.2612 13.7853 29.0917 14.3245L29.0895 14.3316C28.9411 14.8035 28.7877 15.2908 28.6639 15.7054L28.6327 15.8103ZM23.972 15.5154H28.4133C28.5316 15.1229 28.6723 14.6761 28.8085 14.2427L28.8106 14.236C28.9798 13.6981 29.1903 13.0285 29.3592 12.4497C29.4504 12.1371 29.5209 11.8794 29.569 11.684C29.606 11.5509 29.6324 11.4151 29.648 11.2778C29.6291 11.2511 29.6009 11.2326 29.5689 11.226C29.4972 11.2051 29.4227 11.1953 29.3481 11.1972C29.1067 11.2074 28.8685 11.2567 28.6429 11.3432C28.2575 11.4697 27.8643 11.5712 27.4658 11.6473C27.0491 11.7349 26.6252 11.7846 26.1995 11.7958H26.1859C25.7596 11.7842 25.3352 11.7347 24.9178 11.6478C24.52 11.5723 24.1275 11.4711 23.7428 11.345C23.5163 11.2593 23.2776 11.2107 23.0357 11.2009C22.9611 11.1991 22.8868 11.2087 22.8151 11.2291C22.7839 11.2355 22.7563 11.2533 22.7376 11.279C22.7531 11.4161 22.7795 11.5517 22.8165 11.6846C22.8645 11.8798 22.935 12.1371 23.0262 12.4496C23.195 13.0276 23.4054 13.6969 23.5747 14.2346L23.5759 14.2383L23.5963 14.3032C23.7319 14.7363 23.8612 15.1476 23.9721 15.5153L23.972 15.5154Z" fill="#DB771A"/>
<path d="M35.9818 28.1071C35.7353 28.1066 35.4911 28.1548 35.2633 28.2489C35.0355 28.343 34.8285 28.4813 34.6543 28.6556L31.3155 31.9446C30.9262 32.3183 31.5024 32.8946 31.8763 32.5054L35.2151 29.2164C35.3151 29.1144 35.4344 29.0333 35.5661 28.9779C35.6979 28.9226 35.8393 28.894 35.9822 28.894C36.1251 28.894 36.2665 28.9226 36.3983 28.9779C36.53 29.0333 36.6494 29.1144 36.7493 29.2164C36.8459 29.3083 36.9209 29.4203 36.9691 29.5446C37.0173 29.6688 37.0375 29.8022 37.0281 29.9351C37.0047 30.2489 36.893 30.5496 36.7059 30.8025C35.9479 31.8773 34.2501 34.3335 33.3415 35.6494C32.645 36.658 31.7999 37.1495 30.6865 37.1495H23.9453C23.2232 37.1495 22.7365 37.4612 22.3676 37.787L17.0863 32.5053C17.0496 32.4685 17.0061 32.4392 16.9581 32.4193C16.9101 32.3993 16.8586 32.389 16.8067 32.389C16.7547 32.389 16.7032 32.3993 16.6552 32.4193C16.6072 32.4392 16.5637 32.4685 16.527 32.5053L14.1478 34.8852C14.1108 34.9221 14.0814 34.9659 14.0614 35.0141C14.0413 35.0624 14.031 35.1141 14.031 35.1663C14.031 35.2186 14.0413 35.2703 14.0614 35.3185C14.0814 35.3668 14.1108 35.4106 14.1478 35.4474L20.4942 41.7903C20.5685 41.8642 20.6691 41.9057 20.7739 41.9057C20.8786 41.9057 20.9792 41.8642 21.0535 41.7903L23.4327 39.4103C23.5066 39.336 23.5481 39.2355 23.5481 39.1307C23.5481 39.0259 23.5066 38.9254 23.4327 38.8511L22.9231 38.3414C23.1895 38.098 23.4529 37.9419 23.9454 37.9419H30.6866C32.0491 37.9419 33.1874 37.2674 33.9937 36.0994C34.902 34.7841 36.602 32.3243 37.3535 31.2589C37.6314 30.8813 37.7939 30.4313 37.8214 29.9632C37.8311 29.7217 37.7907 29.4808 37.7027 29.2557C37.6147 29.0306 37.4811 28.8261 37.3101 28.6552C37.1357 28.4809 36.9286 28.3427 36.7007 28.2485C36.4728 28.1544 36.2285 28.1062 35.9819 28.1067L35.9818 28.1071ZM21.5663 30.8046C20.0855 30.8046 18.4055 32.251 17.6862 32.9432C17.3004 33.3096 17.8549 33.886 18.2361 33.5147C18.91 32.866 20.3132 31.5979 21.5663 31.5979H29.8937C30.2092 31.5979 30.5117 31.7232 30.7348 31.9463C30.9579 32.1694 31.0833 32.472 31.0833 32.7875C31.0833 33.103 30.9579 33.4056 30.7348 33.6287C30.5117 33.8518 30.2092 33.9771 29.8937 33.9771H25.5318C24.9956 33.9697 24.9956 34.7778 25.5318 34.7702H29.8937C30.1549 34.7716 30.4139 34.7214 30.6557 34.6224C30.8975 34.5234 31.1174 34.3775 31.3026 34.1933C31.4879 34.009 31.6349 33.79 31.7352 33.5487C31.8355 33.3075 31.8872 33.0488 31.8872 32.7875C31.8872 32.5262 31.8355 32.2675 31.7352 32.0262C31.6349 31.785 31.4879 31.5659 31.3026 31.3817C31.1174 31.1974 30.8975 31.0516 30.6557 30.9526C30.4139 30.8536 30.1549 30.8034 29.8937 30.8048L21.5663 30.8046ZM16.8088 33.3488L22.5933 39.1329L20.7756 40.9506L14.9911 35.1666L16.8088 33.3488Z" fill="#DB771A"/>
<path d="M35.9819 27.9295C36.2518 27.9284 36.5192 27.981 36.7687 28.084C37.0182 28.187 37.2447 28.3385 37.4353 28.5297C37.624 28.7174 37.7715 28.9423 37.8685 29.1902C37.9654 29.4381 38.0096 29.7034 37.9982 29.9693C37.9809 30.4401 37.808 30.9212 37.4981 31.3605C36.7468 32.4257 35.0475 34.8848 34.1392 36.1996C33.2721 37.455 32.0784 38.1185 30.6865 38.1185H23.9455C23.5975 38.1185 23.3829 38.2026 23.1846 38.3524L23.5579 38.7256C23.6646 38.8332 23.7244 38.9786 23.7245 39.1301C23.7246 39.2816 23.6648 39.427 23.5583 39.5347L21.1787 41.915C21.0712 42.0221 20.9258 42.0822 20.7742 42.0822C20.6226 42.0823 20.4771 42.0223 20.3696 41.9154L14.0228 35.5723C13.9693 35.519 13.9268 35.4557 13.8978 35.386C13.8689 35.3162 13.8539 35.2414 13.8539 35.1659C13.8539 35.0904 13.8689 35.0156 13.8978 34.9459C13.9268 34.8762 13.9693 34.8128 14.0228 34.7595L16.4017 32.3799C16.4548 32.3266 16.5179 32.2843 16.5873 32.2555C16.6568 32.2266 16.7312 32.2118 16.8064 32.2118C16.8816 32.2118 16.9561 32.2266 17.0256 32.2555C17.095 32.2843 17.1581 32.3266 17.2112 32.3799L17.6058 32.7745C18.4657 31.9542 20.086 30.6273 21.5661 30.6273H29.8937C30.2172 30.6271 30.5367 30.6999 30.8283 30.8401C31.1198 30.9804 31.376 31.1846 31.5778 31.4375L34.5301 28.5292C34.7205 28.3383 34.9468 28.187 35.196 28.0841C35.4452 27.9813 35.7123 27.9288 35.9818 27.9299L35.9819 27.9295ZM30.6867 37.7646C31.9571 37.7646 33.0503 37.1539 33.8481 35.9985C34.7564 34.6826 36.4572 32.2223 37.2089 31.1566C37.4671 30.807 37.6184 30.3901 37.6445 29.9563C37.6539 29.7391 37.6179 29.5223 37.5387 29.3197C37.4596 29.1172 37.3391 28.9334 37.185 28.78C36.8655 28.4618 36.4331 28.2832 35.9822 28.2832C35.5313 28.2832 35.0989 28.4618 34.7794 28.78L31.7792 31.7355C31.8567 31.8732 31.9186 32.0191 31.9637 32.1704L35.0909 29.0897C35.2074 28.9714 35.3463 28.8774 35.4994 28.8134C35.6525 28.7493 35.8169 28.7163 35.9829 28.7164C36.1489 28.7165 36.3133 28.7496 36.4663 28.8139C36.6194 28.8781 36.7582 28.9722 36.8745 29.0906C36.9886 29.1994 37.0773 29.332 37.1344 29.479C37.1915 29.6259 37.2155 29.7836 37.2048 29.9409C37.1805 30.289 37.0575 30.623 36.8504 30.9039C36.0926 31.9783 34.3952 34.4338 33.487 35.7493C32.7544 36.8102 31.8383 37.3259 30.6863 37.3259H23.9451C23.2461 37.3259 22.7974 37.6428 22.4846 37.9191L22.3599 38.0291L18.1182 33.7874C18.0676 33.803 18.0149 33.811 17.9619 33.811C17.8567 33.8085 17.7539 33.7783 17.6641 33.7234C17.5743 33.6685 17.5006 33.5909 17.4503 33.4984C17.4139 33.434 17.3908 33.363 17.3824 33.2895C17.374 33.216 17.3806 33.1415 17.4017 33.0706L16.9609 32.6299C16.9194 32.5898 16.864 32.5675 16.8064 32.5675C16.7488 32.5675 16.6934 32.5898 16.6519 32.6299L14.273 35.01C14.2524 35.0304 14.236 35.0546 14.2249 35.0814C14.2137 35.1081 14.208 35.1368 14.2079 35.1658C14.2079 35.1948 14.2136 35.2234 14.2247 35.2502C14.2358 35.277 14.2521 35.3013 14.2727 35.3217L20.6194 41.6648C20.6613 41.7043 20.7166 41.7262 20.7742 41.7262C20.8317 41.7261 20.8871 41.704 20.9288 41.6644L23.3077 39.2848C23.3483 39.2436 23.3711 39.188 23.371 39.1301C23.3709 39.0722 23.3481 39.0166 23.3073 38.9755L22.6673 38.3352L22.804 38.2104C23.0969 37.9428 23.4031 37.7645 23.9457 37.7645L30.6867 37.7646ZM30.6867 36.9722C31.7279 36.9722 32.5254 36.5198 33.1962 35.5484C34.1049 34.2321 35.8031 31.7752 36.5616 30.7002C36.7283 30.4748 36.8287 30.2073 36.8515 29.9279C36.8597 29.8194 36.8435 29.7104 36.8042 29.6089C36.7649 29.5074 36.7035 29.4159 36.6244 29.3411C36.5408 29.2555 36.441 29.1874 36.3307 29.141C36.2205 29.0945 36.102 29.0706 35.9824 29.0706C35.8627 29.0706 35.7443 29.0945 35.634 29.141C35.5238 29.1874 35.4239 29.2555 35.3404 29.3411L32.0443 32.588C32.0504 32.6535 32.0534 32.7198 32.0535 32.7869C32.0528 33.3595 31.8251 33.9084 31.4202 34.3133C31.0153 34.7182 30.4664 34.9459 29.8938 34.9466H25.5318C25.4554 34.9498 25.3791 34.9371 25.3078 34.9095C25.2365 34.8819 25.1716 34.8399 25.1173 34.7861C25.0629 34.7323 25.0203 34.6678 24.992 34.5968C24.9636 34.5257 24.9503 34.4496 24.9527 34.3732C24.9512 34.2301 25.0021 34.0914 25.0958 33.9832C25.15 33.9237 25.2162 33.8765 25.2902 33.8448C25.3641 33.8131 25.444 33.7977 25.5245 33.7996H29.8937C30.1623 33.7996 30.4198 33.6929 30.6098 33.503C30.7997 33.313 30.9064 33.0555 30.9064 32.7869C30.9064 32.5183 30.7997 32.2607 30.6098 32.0708C30.4198 31.8809 30.1623 31.7742 29.8937 31.7742H21.5663C20.7384 31.7742 19.6789 32.3836 18.4173 33.5858L22.3777 37.5461C22.8156 37.1747 23.3713 36.9712 23.9454 36.972L30.6867 36.9722ZM31.3242 31.6875C31.156 31.4678 30.9395 31.2898 30.6914 31.1673C30.4434 31.0448 30.1704 30.9812 29.8937 30.9813H21.5663C20.168 30.9813 18.5398 32.3746 17.8564 33.0249L18.1671 33.3356C19.5182 32.0469 20.6304 31.4204 21.5664 31.4204H29.8937C30.1219 31.4182 30.3469 31.4737 30.548 31.5818C30.749 31.6899 30.9194 31.847 31.0435 32.0385C31.0762 31.9544 31.1273 31.8786 31.193 31.8167L31.3242 31.6875ZM31.6663 32.4424C31.6363 32.2873 31.5857 32.1369 31.5159 31.9953L31.4397 32.0704C31.4058 32.0968 31.3814 32.1335 31.3703 32.175C31.3591 32.2165 31.3618 32.2605 31.3779 32.3004C31.3956 32.3443 31.4253 32.3824 31.4636 32.4102C31.5019 32.438 31.5472 32.4544 31.5945 32.4576C31.6192 32.4575 31.6437 32.4523 31.6664 32.4422L31.6663 32.4424ZM31.5945 32.8116C31.4729 32.8101 31.3549 32.7702 31.2574 32.6975C31.2592 32.7271 31.2602 32.7569 31.2602 32.7871C31.2621 32.9671 31.228 33.1456 31.16 33.3123C31.0921 33.4789 30.9915 33.6303 30.8642 33.7576C30.7369 33.8848 30.5855 33.9854 30.4189 34.0534C30.2522 34.1214 30.0737 34.1554 29.8937 34.1535H25.5318C25.5003 34.151 25.4687 34.1555 25.4391 34.1666C25.4096 34.1777 25.3828 34.1951 25.3607 34.2177C25.3246 34.2613 25.3053 34.3165 25.3065 34.3732C25.3045 34.4023 25.3088 34.4316 25.319 34.459C25.3292 34.4864 25.3451 34.5113 25.3657 34.5321C25.3863 34.5529 25.4111 34.569 25.4384 34.5795C25.4657 34.5899 25.495 34.5945 25.5242 34.5927H29.8937C30.37 34.5922 30.8268 34.4037 31.1649 34.0682C31.503 33.7328 31.6951 33.2774 31.6994 32.8011C31.6649 32.808 31.6298 32.8115 31.5946 32.8115L31.5945 32.8116ZM16.8087 33.0984L22.8435 39.1325L20.7756 41.2004L14.7409 35.1662L16.8087 33.0984ZM22.3429 39.1325L16.8086 33.5987L15.2415 35.1662L20.7758 40.7L22.3429 39.1325Z" fill="#DB771A"/>
<path d="M25.7549 28.3631V27.9977H24.9739C24.5485 27.9977 24.2991 27.7441 24.2991 27.3025V23.4682C24.2991 23.0265 24.5486 22.7731 24.9739 22.7731H25.7549V22.1943C25.7553 22.1289 25.7686 22.0644 25.794 22.0042C25.8193 21.944 25.8563 21.8893 25.9028 21.8434C25.9493 21.7975 26.0044 21.7612 26.0649 21.7366C26.1254 21.712 26.1902 21.6995 26.2555 21.7C26.3874 21.6991 26.5143 21.7507 26.6082 21.8434C26.702 21.9361 26.7553 22.0623 26.7561 22.1943V22.7731H26.7595C27.8008 22.7731 28.4278 23.2692 28.4278 24.0765C28.4278 24.663 27.9805 25.13 27.3938 25.2098V25.2387C28.1089 25.2713 28.6737 25.7963 28.6737 26.4916C28.6737 27.4075 27.9587 27.9977 26.8258 27.9977H26.7564V28.3631C26.756 28.4284 26.7427 28.493 26.7173 28.5532C26.692 28.6134 26.655 28.668 26.6085 28.714C26.562 28.7599 26.5069 28.7962 26.4464 28.8208C26.3859 28.8454 26.3211 28.8579 26.2558 28.8575C26.1904 28.8579 26.1256 28.8455 26.0651 28.8209C26.0045 28.7963 25.9495 28.76 25.9029 28.7141C25.8564 28.6682 25.8194 28.6135 25.794 28.5533C25.7686 28.4931 25.7553 28.4285 25.7549 28.3631ZM25.6448 27.0563H26.4442C26.9979 27.0563 27.3059 26.8173 27.3059 26.3756C27.3059 25.9484 26.9905 25.7094 26.4369 25.7094H25.6448V27.0563ZM25.6448 24.9021H26.3379C26.8256 24.9021 27.1188 24.6739 27.1188 24.2975C27.1188 23.9318 26.8549 23.7145 26.4038 23.7145H25.6448V24.9021Z" fill="#DB771A"/>
</g>
<defs>
<clipPath id="clip0_4254_28125">
<rect width="32" height="32" fill="white" transform="translate(10 10)"/>
</clipPath>
</defs>
</svg>
