<svg width="20" height="18" viewBox="0 0 20 18" fill="none" xmlns="http://www.w3.org/2000/svg">
<path fill-rule="evenodd" clip-rule="evenodd" d="M19.5 8.99955C19.5 9.31449 19.3749 9.61654 19.1522 9.83924C18.9295 10.0619 18.6274 10.187 18.3125 10.187H4.55413L9.65325 15.2838C9.76366 15.3942 9.85124 15.5253 9.911 15.6695C9.97075 15.8138 10.0015 15.9684 10.0015 16.1245C10.0015 16.2807 9.97075 16.4353 9.911 16.5796C9.85124 16.7238 9.76366 16.8549 9.65325 16.9653C9.54284 17.0757 9.41177 17.1633 9.26751 17.223C9.12326 17.2828 8.96864 17.3135 8.8125 17.3135C8.65636 17.3135 8.50175 17.2828 8.35749 17.223C8.21323 17.1633 8.08216 17.0757 7.97175 16.9653L0.846752 9.8403C0.736164 9.72999 0.648424 9.59895 0.588559 9.45468C0.528694 9.31041 0.497879 9.15574 0.497879 8.99955C0.497879 8.84335 0.528694 8.68869 0.588559 8.54442C0.648424 8.40015 0.736164 8.26911 0.846752 8.1588L7.97175 1.0338C8.19473 0.810816 8.49716 0.685547 8.8125 0.685547C9.12784 0.685547 9.43027 0.810816 9.65325 1.0338C9.87623 1.25678 10.0015 1.5592 10.0015 1.87455C10.0015 2.18989 9.87623 2.49232 9.65325 2.7153L4.55413 7.81205H18.3125C18.6274 7.81205 18.9295 7.93716 19.1522 8.15986C19.3749 8.38256 19.5 8.6846 19.5 8.99955Z" fill="#DB771A"/>
</svg>
