<svg width="24" height="24" viewBox="0 0 24 24" fill="none" xmlns="http://www.w3.org/2000/svg">
<path d="M19.5 19.3508H4.5C4.10218 19.3508 3.72064 19.1927 3.43934 18.9114C3.15804 18.6301 3 18.2486 3 17.8508V8.55078C3 8.15296 3.15804 7.77143 3.43934 7.49012C3.72064 7.20882 4.10218 7.05078 4.5 7.05078H6.3L7.8 4.80078H13.8L15.3 7.05078H19.5C19.8978 7.05078 20.2794 7.20882 20.5607 7.49012C20.842 7.77143 21 8.15296 21 8.55078V17.8508C21 18.2486 20.842 18.6301 20.5607 18.9114C20.2794 19.1927 19.8978 19.3508 19.5 19.3508Z" stroke="#1D71B8" stroke-linecap="round" stroke-linejoin="round"/>
<circle cx="18.6" cy="8.99844" r="0.5" stroke="#1D71B8" stroke-width="0.2"/>
<path d="M16.2 5.39844H19.8" stroke="#1D71B8" stroke-linecap="round"/>
<path d="M11.4 16.7984C13.7195 16.7984 15.6 14.918 15.6 12.5984C15.6 10.2788 13.7195 8.39844 11.4 8.39844C9.08036 8.39844 7.19995 10.2788 7.19995 12.5984C7.19995 14.918 9.08036 16.7984 11.4 16.7984Z" stroke="#1D71B8" stroke-linecap="round" stroke-linejoin="round"/>
</svg>
