<svg width="32" height="32" viewBox="0 0 32 32" fill="none" xmlns="http://www.w3.org/2000/svg">
<path d="M16.0001 23.1333C17.6001 23.1333 18.9445 22.5889 20.0334 21.5C21.1223 20.4111 21.6667 19.0556 21.6667 17.4333C21.6667 15.8333 21.1223 14.4944 20.0334 13.4167C18.9445 12.3389 17.6001 11.8 16.0001 11.8C14.3779 11.8 13.0279 12.3389 11.9501 13.4167C10.8723 14.4944 10.3334 15.8333 10.3334 17.4333C10.3334 19.0556 10.8723 20.4111 11.9501 21.5C13.0279 22.5889 14.3779 23.1333 16.0001 23.1333ZM16.0001 21.1333C14.9334 21.1333 14.0556 20.7833 13.3667 20.0833C12.6779 19.3833 12.3334 18.5 12.3334 17.4333C12.3334 16.3889 12.6779 15.5222 13.3667 14.8333C14.0556 14.1444 14.9334 13.8 16.0001 13.8C17.0445 13.8 17.9167 14.1444 18.6167 14.8333C19.3167 15.5222 19.6667 16.3889 19.6667 17.4333C19.6667 18.5 19.3167 19.3833 18.6167 20.0833C17.9167 20.7833 17.0445 21.1333 16.0001 21.1333ZM4.66675 28C4.13341 28 3.66675 27.8 3.26675 27.4C2.86675 27 2.66675 26.5333 2.66675 26V8.9C2.66675 8.38889 2.86675 7.92778 3.26675 7.51667C3.66675 7.10556 4.13341 6.9 4.66675 6.9H9.56675L12.0001 4H20.0001L22.4334 6.9H27.3334C27.8445 6.9 28.3056 7.10556 28.7167 7.51667C29.1279 7.92778 29.3334 8.38889 29.3334 8.9V26C29.3334 26.5333 29.1279 27 28.7167 27.4C28.3056 27.8 27.8445 28 27.3334 28H4.66675ZM27.3334 26V8.9H21.5001L19.0667 6H12.9334L10.5001 8.9H4.66675V26H27.3334Z" fill="#003063"/>
</svg>
