<svg width="36" height="38" viewBox="0 0 36 38" fill="none" xmlns="http://www.w3.org/2000/svg">
<path fill-rule="evenodd" clip-rule="evenodd" d="M6.56152 16.418C6.56152 15.3134 7.45695 14.418 8.56152 14.418H26.9876C28.0922 14.418 28.9876 15.3134 28.9876 16.418V26.5818C28.9876 27.6864 28.0922 28.5818 26.9876 28.5818H8.56152C7.45695 28.5818 6.56152 27.6864 6.56152 26.5818V16.418ZM13.0686 19.88C12.1928 19.88 11.4805 18.9537 11.4805 18.081C11.4805 17.2082 12.1928 16.498 13.0686 16.498C13.9443 16.498 14.6566 17.2081 14.6566 18.0808C14.6566 18.9536 13.9442 19.88 13.0686 19.88ZM12.985 20.2696C12.5687 20.2696 12.1844 20.1304 11.8763 19.8965L11.8763 19.8965C10.8705 20.0585 10.1024 20.9275 10.1024 21.9756C10.1024 22.5513 11.4303 23.0181 13.0685 23.0181C14.7067 23.0181 16.0347 22.5513 16.0347 21.9756C16.0347 20.9275 15.2666 20.0585 14.2608 19.8965C13.9528 20.1304 13.5684 20.2697 13.1521 20.2697L12.985 20.2696ZM17.8647 19.1387C17.8647 18.8625 18.0886 18.6387 18.3647 18.6387H25.4467C25.7228 18.6387 25.9467 18.8625 25.9467 19.1387C25.9467 19.4148 25.7228 19.6387 25.4467 19.6387H18.3647C18.0886 19.6387 17.8647 19.4148 17.8647 19.1387ZM18.3647 22.1797C18.0886 22.1797 17.8647 22.4035 17.8647 22.6797C17.8647 22.9558 18.0886 23.1797 18.3647 23.1797H21.9057C22.1819 23.1797 22.4057 22.9558 22.4057 22.6797C22.4057 22.4035 22.1819 22.1797 21.9057 22.1797H18.3647Z" fill="#DB771A"/>
<path fill-rule="evenodd" clip-rule="evenodd" d="M17.0748 0.989366L0.574053 11.597C0.216276 11.827 0 12.2231 0 12.6484V35.0746C0 35.7649 0.559645 36.3246 1.25 36.3246C1.94036 36.3246 2.5 35.7649 2.5 35.0746V14.4228C2.5 13.7423 2.84604 13.1084 3.41848 12.7404L16.693 4.20681C17.3518 3.78329 18.1972 3.78329 18.856 4.20681L32.1305 12.7404C32.703 13.1084 33.049 13.7423 33.049 14.4228V35.0746C33.049 35.7649 33.6087 36.3246 34.299 36.3246C34.9894 36.3246 35.549 35.7649 35.549 35.0746V12.6484C35.549 12.2231 35.3327 11.827 34.975 11.597L18.4742 0.989366C18.0726 0.718423 17.5319 0.695471 17.0986 0.97407L17.0748 0.989366Z" fill="#474747"/>
<path d="M10.6924 36.2559H24.8562" stroke="#474747" stroke-width="2.5" stroke-linecap="round" stroke-linejoin="round"/>
</svg>
