<svg width="113" height="81" viewBox="0 0 113 81" fill="none" xmlns="http://www.w3.org/2000/svg">
<path d="M13.8733 24.2506C15.8133 24.0377 16.9868 25.4099 18.2123 26.4698C26.2467 33.4301 34.2339 40.4425 42.221 47.4549C44.7619 49.6883 45.0269 49.7167 47.3785 47.3745C58.5217 36.2644 69.6649 25.1497 80.8033 14.0349C84.7448 10.1028 88.6721 6.16132 92.6137 2.234C94.5631 0.293998 95.4243 0.265611 97.5536 1.99268C102.394 5.91527 106.601 10.5145 111.214 14.6831C112.634 15.9654 112.127 17.2761 111.067 18.4306C109.222 20.4463 107.367 22.4668 105.389 24.35C90.1011 38.9331 74.7846 53.4831 59.4823 68.052C55.5691 71.7806 51.6749 75.5281 47.7618 79.2615C45.7792 81.1494 43.5884 81.1021 41.1374 78.935C36.8552 75.1496 32.6393 71.2838 28.3997 67.4464C19.7832 59.6438 11.1621 51.846 2.55981 44.0339C1.27752 42.8699 -0.132533 41.739 0.0236131 39.7139C0.151369 38.0625 1.20654 36.8228 2.15761 35.673C5.01083 32.2236 8.03913 28.9256 11.0106 25.5708C11.7724 24.7096 12.6857 24.1371 13.8828 24.2459L13.8733 24.2506Z" fill="#003063"/>
</svg>
