<svg width="12" height="12" viewBox="0 0 12 12" fill="none" xmlns="http://www.w3.org/2000/svg">
<path d="M10.9544 1.60307L7.74969 10.8617C7.61297 11.2609 7.04422 11.2499 6.91844 10.8453L5.62781 6.65619C5.60834 6.58771 5.57137 6.52548 5.52055 6.47562C5.46973 6.42576 5.40681 6.38999 5.33797 6.37182L1.15438 5.08119C0.749689 4.95541 0.738752 4.38666 1.13797 4.24994L10.3966 1.04526C10.4744 1.01792 10.5583 1.01312 10.6387 1.03141C10.7191 1.0497 10.7927 1.09034 10.851 1.14865C10.9093 1.20695 10.9499 1.28055 10.9682 1.36095C10.9865 1.44135 10.9817 1.52528 10.9544 1.60307V1.60307Z" stroke="#DB771A" stroke-linecap="round" stroke-linejoin="round"/>
</svg>
