<svg width="50" height="50" viewBox="0 0 50 50" fill="none" xmlns="http://www.w3.org/2000/svg">
<path opacity="0.4" d="M41.6673 28.3335V24.6633C41.6673 20.2761 41.6673 18.0824 40.3849 16.6565C40.2669 16.5254 40.1421 16.4006 40.0109 16.2826C38.5851 15.0002 36.3914 15.0002 32.0041 15.0002H31.3814C29.4586 15.0002 28.4971 15.0002 27.6012 14.7448C27.1091 14.6045 26.6347 14.408 26.1875 14.1592C25.3734 13.7063 24.6936 13.0265 23.334 11.6668L22.4169 10.7497C21.9612 10.294 21.7333 10.0662 21.4939 9.86769C20.4615 9.01189 19.1951 8.48731 17.8599 8.36245C17.5503 8.3335 17.228 8.3335 16.5836 8.3335C15.1127 8.3335 14.3772 8.3335 13.7646 8.44908C11.0678 8.9579 8.95838 11.0673 8.44957 13.7641C8.33398 14.3767 8.33398 15.1122 8.33398 16.5831V28.3335C8.33398 34.6189 8.33398 37.7616 10.2866 39.7142C12.2392 41.6668 15.3819 41.6668 21.6673 41.6668H28.334C34.6194 41.6668 37.7621 41.6668 39.7147 39.7142C41.6673 37.7616 41.6673 34.6189 41.6673 28.3335Z" fill="#8B99A7"/>
<path d="M20 31.25C20 30.5596 20.5596 30 21.25 30H29.5833C30.2737 30 30.8333 30.5596 30.8333 31.25C30.8333 31.9404 30.2737 32.5 29.5833 32.5H21.25C20.5596 32.5 20 31.9404 20 31.25Z" fill="#003063"/>
<path d="M30.2 27.8C31.0837 27.8 31.8 26.7255 31.8 25.4C31.8 24.0745 31.0837 23 30.2 23C29.3163 23 28.6 24.0745 28.6 25.4C28.6 26.7255 29.3163 27.8 30.2 27.8Z" fill="#003063"/>
<path d="M22.2 25.4C22.2 26.7255 21.4837 27.8 20.6 27.8C19.7163 27.8 19 26.7255 19 25.4C19 24.0745 19.7163 23 20.6 23C21.4837 23 22.2 24.0745 22.2 25.4Z" fill="#003063"/>
</svg>
