<svg width="32" height="32" viewBox="0 0 32 32" fill="none" xmlns="http://www.w3.org/2000/svg">
<path d="M11.5001 19.4327H24.5334L20.3001 13.7327L16.8667 18.2327L14.6001 15.3327L11.5001 19.4327ZM8.66675 25.3327C8.13341 25.3327 7.66675 25.1327 7.26675 24.7327C6.86675 24.3327 6.66675 23.866 6.66675 23.3327V4.66602C6.66675 4.13268 6.86675 3.66602 7.26675 3.26602C7.66675 2.86602 8.13341 2.66602 8.66675 2.66602H27.3334C27.8667 2.66602 28.3334 2.86602 28.7334 3.26602C29.1334 3.66602 29.3334 4.13268 29.3334 4.66602V23.3327C29.3334 23.866 29.1334 24.3327 28.7334 24.7327C28.3334 25.1327 27.8667 25.3327 27.3334 25.3327H8.66675ZM8.66675 23.3327H27.3334V4.66602H8.66675V23.3327ZM4.66675 29.3327C4.13341 29.3327 3.66675 29.1327 3.26675 28.7327C2.86675 28.3327 2.66675 27.866 2.66675 27.3327V6.66602H4.66675V27.3327H25.3334V29.3327H4.66675Z" fill="#003063"/>
</svg>
