<svg width="52" height="52" viewBox="0 0 52 52" fill="none" xmlns="http://www.w3.org/2000/svg">
<circle cx="26" cy="26" r="25.5" stroke="#DB771A"/>
<g clip-path="url(#clip0_2264_22373)">
<path d="M26 14.7905C26.1598 14.7904 26.3151 14.8437 26.4412 14.9419L35.8831 22.2856C35.9695 22.3528 36.0393 22.4388 36.0874 22.5371C36.1355 22.6354 36.1605 22.7434 36.1605 22.8528V34.3929C36.1596 35.1397 35.8626 35.8557 35.3345 36.3837C34.8065 36.9118 34.0905 37.2088 33.3437 37.2097H18.6563C17.9095 37.2088 17.1936 36.9118 16.6655 36.3837C16.1374 35.8557 15.8404 35.1397 15.8395 34.3929V22.8528C15.8395 22.7434 15.8645 22.6354 15.9126 22.5371C15.9607 22.4388 16.0306 22.3528 16.117 22.2856L25.5589 14.9419C25.685 14.8437 25.8402 14.7904 26 14.7905ZM34.7234 23.2042L26 16.4193L17.2767 23.2042V34.3929C17.2771 34.7587 17.4226 35.1094 17.6812 35.368C17.9399 35.6267 18.2905 35.7721 18.6563 35.7726H33.3437C33.7095 35.7721 34.0602 35.6267 34.3188 35.368C34.5775 35.1094 34.723 34.7587 34.7234 34.3929V23.2042Z" fill="#DB771A"/>
<path d="M24.4192 28.1556C24.1016 28.156 23.7972 28.2823 23.5727 28.5068C23.3482 28.7313 23.2219 29.0357 23.2215 29.3532V35.7245H28.7305V29.3532C28.7302 29.0357 28.6039 28.7313 28.3794 28.5068C28.1549 28.2823 27.8504 28.156 27.5329 28.1556H24.4192ZM24.4192 26.7185H27.5329C28.2317 26.7185 28.9019 26.9961 29.396 27.4902C29.8901 27.9843 30.1677 28.6545 30.1677 29.3532V37.1616H21.7844V29.3532C21.7844 28.6545 22.062 27.9843 22.5561 27.4902C23.0502 26.9961 23.7204 26.7185 24.4192 26.7185V26.7185Z" fill="#DB771A"/>
<path d="M19.006 14.2156H21.2575C21.4902 14.2156 21.7207 14.2614 21.9358 14.3505C22.1508 14.4396 22.3462 14.5701 22.5108 14.7347C22.6754 14.8993 22.8059 15.0947 22.895 15.3097C22.9841 15.5248 23.0299 15.7553 23.0299 15.988V18.479L17.2335 22.9958V15.988C17.2335 15.5179 17.4203 15.0671 17.7527 14.7347C18.0851 14.4023 18.5359 14.2156 19.006 14.2156Z" fill="white"/>
<path d="M19.006 15.6527C18.9171 15.6528 18.8318 15.6882 18.769 15.751C18.7061 15.8139 18.6707 15.8991 18.6706 15.988V20.054L21.5928 17.777V15.988C21.5927 15.8991 21.5573 15.8139 21.4945 15.751C21.4316 15.6882 21.3464 15.6528 21.2575 15.6527H19.006ZM19.006 14.2156H21.2575C21.4902 14.2156 21.7207 14.2614 21.9358 14.3505C22.1508 14.4396 22.3462 14.5701 22.5108 14.7347C22.6754 14.8993 22.8059 15.0947 22.895 15.3097C22.9841 15.5248 23.0299 15.7553 23.0299 15.988V18.479L17.2335 22.9958V15.988C17.2335 15.5179 17.4203 15.0671 17.7527 14.7347C18.0851 14.4023 18.5359 14.2156 19.006 14.2156Z" fill="#DB771A"/>
<path d="M14.7003 25.0782C14.5513 25.0783 14.406 25.0321 14.2844 24.946C14.1629 24.8599 14.0711 24.7381 14.0218 24.5975C13.9725 24.457 13.9681 24.3045 14.0092 24.1614C14.0503 24.0182 14.1349 23.8913 14.2512 23.7983L17.1682 21.4673C17.2419 21.4084 17.3265 21.3646 17.4171 21.3384C17.5078 21.3121 17.6027 21.304 17.6965 21.3145C17.7903 21.325 17.8811 21.3538 17.9637 21.3994C18.0464 21.4449 18.1192 21.5063 18.1781 21.58C18.237 21.6537 18.2808 21.7383 18.3071 21.829C18.3333 21.9196 18.3414 22.0146 18.3309 22.1084C18.3204 22.2021 18.2916 22.2929 18.246 22.3756C18.2005 22.4582 18.1391 22.5311 18.0654 22.59L15.1484 24.921C15.0213 25.0229 14.8632 25.0783 14.7003 25.0782Z" fill="#DB771A"/>
<path d="M37.305 25.0782C37.142 25.0784 36.9839 25.0229 36.8568 24.921L33.9399 22.59C33.8662 22.5311 33.8048 22.4582 33.7592 22.3756C33.7137 22.2929 33.6848 22.2021 33.6744 22.1084C33.6639 22.0146 33.672 21.9196 33.6982 21.829C33.7244 21.7383 33.7682 21.6537 33.8272 21.58C33.8861 21.5063 33.9589 21.4449 34.0416 21.3994C34.1242 21.3538 34.215 21.325 34.3088 21.3145C34.4026 21.304 34.4975 21.3121 34.5881 21.3384C34.6788 21.3646 34.7634 21.4084 34.8371 21.4673L37.754 23.7983C37.8704 23.8913 37.955 24.0182 37.9961 24.1614C38.0372 24.3045 38.0328 24.457 37.9835 24.5975C37.9342 24.7381 37.8424 24.8599 37.7208 24.946C37.5993 25.0321 37.4539 25.0783 37.305 25.0782V25.0782Z" fill="#DB771A"/>
</g>
<defs>
<clipPath id="clip0_2264_22373">
<rect width="32" height="32" fill="white" transform="translate(10 10)"/>
</clipPath>
</defs>
</svg>
