<svg width="32" height="32" viewBox="0 0 32 32" fill="none" xmlns="http://www.w3.org/2000/svg">
<path d="M16 2.66602C8.65199 2.66602 2.66666 8.65134 2.66666 15.9993C2.66666 23.3474 8.65199 29.3327 16 29.3327C23.348 29.3327 29.3333 23.3474 29.3333 15.9993C29.3333 8.65134 23.348 2.66602 16 2.66602ZM16 5.33268C21.9068 5.33268 26.6667 10.0925 26.6667 15.9993C26.6667 21.352 22.7538 25.75 17.625 26.5306V19.179H20.7292L21.2161 16.0254H17.625V14.3014C17.625 12.9908 18.052 11.8275 19.2786 11.8275H21.2474V9.07487C20.9007 9.0282 20.1691 8.92643 18.7864 8.92643C15.8984 8.92643 14.2057 10.4518 14.2057 13.9264V16.0254H11.237V19.179H14.2057V26.5046C9.16038 25.6538 5.33332 21.293 5.33332 15.9993C5.33332 10.0925 10.0932 5.33268 16 5.33268Z" fill="#3B5998"/>
</svg>
