<svg width="32" height="32" viewBox="0 0 32 32" fill="none" xmlns="http://www.w3.org/2000/svg">
<path d="M15.3386 3.33398C7.73343 3.33398 1.33725 8.36785 1.33725 14.8249C1.33725 20.5835 6.40491 25.257 13.0039 26.1556C13.1557 26.1886 13.3183 26.2414 13.4219 26.2871C13.412 26.3441 13.4355 26.6082 13.4037 26.8496V26.8509C13.3951 26.9023 13.254 27.7443 13.224 27.9199L13.2253 27.9186C13.1752 28.2073 13.0147 28.6897 13.4622 29.3665C13.686 29.705 14.1903 29.9924 14.6419 30.0006C15.0936 30.0089 15.4727 29.8605 15.888 29.6322C18.92 27.9649 22.2143 26.0835 24.8099 23.7207C27.4055 21.3579 29.3372 18.4268 29.3372 14.8249C29.3372 8.36808 22.9437 3.33398 15.3386 3.33398ZM15.3386 5.33398C22.0681 5.33398 27.3372 9.71232 27.3372 14.8249C27.3372 17.7197 25.8232 20.0935 23.4636 22.2415C21.2008 24.3013 18.1913 26.0628 15.2956 27.6634C15.3339 27.4338 15.3815 27.1465 15.3815 27.1465L15.3841 27.1309L15.3867 27.1152C15.4367 26.7401 15.5767 26.1773 15.2826 25.4421L15.2813 25.4408V25.4395C15.0589 24.8896 14.6471 24.6506 14.3177 24.4928C13.9883 24.3351 13.6766 24.254 13.418 24.1986L13.3789 24.1908L13.3386 24.1855C7.47968 23.4147 3.33725 19.4164 3.33725 14.8249C3.33725 9.71255 8.60901 5.33398 15.3386 5.33398ZM12.2227 11.4251C11.8467 11.4251 11.5404 11.7289 11.5404 12.1022V17.2311C11.5404 17.6051 11.846 17.9082 12.2227 17.9082C12.5987 17.9082 12.905 17.6045 12.905 17.2311V12.1022C12.905 11.7289 12.5993 11.4251 12.2227 11.4251ZM14.569 11.4251C14.4957 11.4251 14.4222 11.437 14.3516 11.4603C14.0729 11.553 13.8854 11.8109 13.8854 12.1022V17.2311C13.8854 17.6051 14.1924 17.9082 14.569 17.9082C14.9464 17.9082 15.2526 17.6045 15.2526 17.2311V14.0592L17.9024 17.6374C18.0304 17.8067 18.2346 17.9082 18.4479 17.9082C18.5206 17.9082 18.5934 17.8964 18.6641 17.873C18.9441 17.7817 19.1315 17.5238 19.1315 17.2311V12.1009C19.1315 11.7276 18.8259 11.4251 18.4492 11.4251C18.0726 11.4251 17.7656 11.7276 17.7656 12.1009V15.2754L15.1146 11.696C14.9866 11.5266 14.7817 11.4251 14.569 11.4251ZM7.64454 11.4264C7.26854 11.4264 6.96225 11.7289 6.96225 12.1022V17.2324C6.96225 17.6064 7.26787 17.9095 7.64454 17.9095H10.2305C10.6071 17.9095 10.9121 17.6045 10.9115 17.2311C10.9115 16.8578 10.6071 16.554 10.2305 16.554H8.32553V12.1022C8.32553 11.7289 8.02121 11.4264 7.64454 11.4264ZM20.7305 11.4264C20.3545 11.4264 20.0482 11.7302 20.0482 12.1035V12.1048V14.666V14.6673V14.6686V17.2311C20.0482 17.6051 20.3551 17.9082 20.7305 17.9082H23.3164C23.6931 17.9082 24 17.6045 24 17.2311C24 16.8578 23.6931 16.554 23.3164 16.554H21.4128V15.3431H23.3164C23.6938 15.3431 24 15.0393 24 14.666C24 14.292 23.6931 13.9889 23.3164 13.9889V13.9915H21.4128V12.7806H23.3164C23.6938 12.7806 24 12.4768 24 12.1035C24 11.7302 23.6931 11.4264 23.3164 11.4264H20.7305Z" fill="#00B900"/>
</svg>
