<svg width="52" height="52" viewBox="0 0 52 52" fill="none" xmlns="http://www.w3.org/2000/svg">
<circle cx="26" cy="26" r="25.5" stroke="#DB771A"/>
<g clip-path="url(#clip0_2264_22501)">
<path d="M16.4671 27.8682C15.7849 27.8682 15.1181 28.0705 14.5509 28.4495C13.9837 28.8285 13.5416 29.3672 13.2805 29.9974C13.0195 30.6276 12.9512 31.3211 13.0843 31.9902C13.2173 32.6593 13.5458 33.2738 14.0282 33.7562C14.5106 34.2386 15.1251 34.5671 15.7942 34.7001C16.4633 34.8332 17.1568 34.7649 17.787 34.5039C18.4172 34.2428 18.9559 33.8007 19.3349 33.2335C19.7139 32.6663 19.9162 31.9995 19.9162 31.3173C19.9152 30.4029 19.5514 29.5262 18.9048 28.8796C18.2582 28.233 17.3815 27.8692 16.4671 27.8682ZM16.4671 26.7185C17.3766 26.7185 18.2658 26.9882 19.022 27.4935C19.7783 27.9989 20.3678 28.7171 20.7158 29.5574C21.0639 30.3977 21.155 31.3224 20.9775 32.2145C20.8001 33.1066 20.3621 33.926 19.7189 34.5692C19.0758 35.2123 18.2564 35.6503 17.3643 35.8277C16.4722 36.0052 15.5475 35.9141 14.7072 35.566C13.8669 35.218 13.1486 34.6285 12.6433 33.8723C12.138 33.116 11.8683 32.2269 11.8683 31.3173C11.8683 30.0976 12.3528 28.9279 13.2152 28.0655C14.0777 27.203 15.2474 26.7185 16.4671 26.7185V26.7185Z" fill="#DB771A"/>
<path d="M35.5329 27.8682C34.8508 27.8682 34.1839 28.0705 33.6167 28.4495C33.0495 28.8285 32.6074 29.3672 32.3464 29.9974C32.0853 30.6276 32.017 31.3211 32.1501 31.9902C32.2832 32.6593 32.6117 33.2738 33.0941 33.7562C33.5764 34.2386 34.191 34.5671 34.8601 34.7001C35.5291 34.8332 36.2226 34.7649 36.8529 34.5039C37.4831 34.2428 38.0218 33.8007 38.4008 33.2335C38.7798 32.6663 38.982 31.9995 38.982 31.3173C38.981 30.4029 38.6173 29.5262 37.9707 28.8796C37.3241 28.233 36.4474 27.8692 35.5329 27.8682ZM35.5329 26.7185C36.4425 26.7185 37.3316 26.9882 38.0879 27.4935C38.8442 27.9989 39.4336 28.7171 39.7817 29.5574C40.1298 30.3977 40.2208 31.3224 40.0434 32.2145C39.8659 33.1066 39.4279 33.926 38.7848 34.5692C38.1416 35.2123 37.3222 35.6503 36.4301 35.8277C35.538 36.0052 34.6134 35.9141 33.7731 35.566C32.9327 35.218 32.2145 34.6285 31.7092 33.8723C31.2039 33.116 30.9341 32.2269 30.9341 31.3173C30.9341 30.0976 31.4187 28.9279 32.2811 28.0655C33.1435 27.203 34.3133 26.7185 35.5329 26.7185V26.7185Z" fill="#DB771A"/>
<path d="M35.7 31.9135C35.5903 31.9136 35.4829 31.8823 35.3904 31.8233C35.298 31.7643 35.2243 31.68 35.1782 31.5805L28.4792 17.1485H24.1892C24.0368 17.1485 23.8906 17.0879 23.7827 16.9801C23.6749 16.8723 23.6144 16.7261 23.6144 16.5736C23.6144 16.4212 23.6749 16.275 23.7827 16.1671C23.8906 16.0593 24.0368 15.9988 24.1892 15.9988H28.8461C28.9557 15.9988 29.063 16.0301 29.1554 16.0891C29.2478 16.148 29.3214 16.2322 29.3676 16.3316L36.221 31.0965C36.2616 31.1841 36.2795 31.2805 36.2731 31.3768C36.2666 31.4731 36.236 31.5663 36.1841 31.6476C36.1322 31.729 36.0607 31.796 35.9761 31.8425C35.8915 31.8889 35.7965 31.9134 35.7 31.9135Z" fill="#DB771A"/>
<path d="M24.036 27.2935C23.909 27.2936 23.7872 27.3442 23.6974 27.434C23.6076 27.5238 23.5571 27.6455 23.5569 27.7725V30.7905C23.5571 30.9175 23.6076 31.0393 23.6974 31.1291C23.7872 31.2189 23.909 31.2694 24.036 31.2695H29.1617C29.2887 31.2694 29.4105 31.2189 29.5003 31.1291C29.5901 31.0393 29.6406 30.9175 29.6408 30.7905V27.7725C29.6406 27.6455 29.5901 27.5238 29.5003 27.434C29.4105 27.3442 29.2887 27.2936 29.1617 27.2935H24.036ZM24.036 26.1438H29.1617C29.5937 26.1438 30.008 26.3154 30.3134 26.6208C30.6189 26.9263 30.7905 27.3406 30.7905 27.7725V30.7905C30.7905 31.2225 30.6189 31.6368 30.3134 31.9422C30.008 32.2476 29.5937 32.4192 29.1617 32.4192H24.036C23.604 32.4192 23.1897 32.2476 22.8843 31.9422C22.5788 31.6368 22.4072 31.2225 22.4072 30.7905V27.7725C22.4072 27.3406 22.5788 26.9263 22.8843 26.6208C23.1897 26.3154 23.604 26.1438 24.036 26.1438V26.1438Z" fill="#DB771A"/>
<path d="M12.5348 21.8452H20.4685C20.5608 21.8452 20.6517 21.8674 20.7336 21.9099C20.8155 21.9524 20.886 22.014 20.939 22.0895L23.957 26.3879C24.0218 26.4802 24.058 26.5896 24.0611 26.7023C24.0642 26.8151 24.0341 26.9263 23.9745 27.022C23.9149 27.1178 23.8284 27.1939 23.7259 27.2409C23.6233 27.2878 23.5092 27.3036 23.3977 27.2862L12.4462 25.5752C12.3108 25.554 12.1874 25.4852 12.0983 25.381C12.0091 25.2769 11.9601 25.1443 11.9601 25.0073V22.4201C11.9601 22.2676 12.0207 22.1215 12.1284 22.0137C12.2362 21.9059 12.3824 21.8453 12.5348 21.8452ZM20.1698 22.9949H13.1097V24.5155L22.2386 25.9417L20.1698 22.9949Z" fill="#DB771A"/>
<path d="M24.5323 20.3994H31.0004L33.0148 24.5916L29.0104 27.2436H22.9689L19.6664 22.252L24.5323 20.3994ZM30.2773 21.5491H24.7437L21.4177 22.8154L23.5867 26.0939H28.6641L31.5444 24.1863L30.2773 21.5491Z" fill="#DB771A"/>
<path d="M30.2647 18.9485H34.4189C34.5001 18.9485 34.5803 18.9657 34.6543 18.9989C34.7283 19.0322 34.7945 19.0807 34.8484 19.1413L37.6525 22.2937C37.7254 22.3757 37.7733 22.4767 37.7906 22.585C37.8079 22.6932 37.7939 22.8042 37.7503 22.9048C37.7066 23.0053 37.6351 23.0913 37.5441 23.1526C37.4532 23.2138 37.3467 23.2478 37.2371 23.2505L31.5852 23.389C31.4677 23.3919 31.3521 23.3587 31.2541 23.2939C31.156 23.229 31.0802 23.1357 31.0368 23.0264L29.7304 19.7354C29.6958 19.6482 29.6831 19.5539 29.6933 19.4606C29.7035 19.3674 29.7364 19.2781 29.7891 19.2005C29.8418 19.1228 29.9127 19.0593 29.9956 19.0154C30.0785 18.9715 30.1709 18.9485 30.2647 18.9485L30.2647 18.9485ZM34.1609 20.0982H31.1114L31.9576 22.23L35.9695 22.1316L34.1609 20.0982Z" fill="#DB771A"/>
<path d="M29.3536 23.6177H27.4653C27.3128 23.6177 27.1666 23.5572 27.0588 23.4494C26.951 23.3415 26.8904 23.1953 26.8904 23.0429C26.8904 22.8904 26.951 22.7442 27.0588 22.6364C27.1666 22.5286 27.3128 22.468 27.4653 22.468H29.3536C29.5061 22.468 29.6523 22.5286 29.7601 22.6364C29.8679 22.7442 29.9285 22.8904 29.9285 23.0429C29.9285 23.1953 29.8679 23.3415 29.7601 23.4494C29.6523 23.5572 29.5061 23.6177 29.3536 23.6177Z" fill="#DB771A"/>
<path d="M22.9391 31.8921H16.3954C16.2429 31.8921 16.0967 31.8316 15.9889 31.7238C15.8811 31.616 15.8206 31.4697 15.8206 31.3173C15.8206 31.1648 15.8811 31.0186 15.9889 30.9108C16.0967 30.803 16.2429 30.7424 16.3954 30.7424H22.9391C23.0916 30.7424 23.2378 30.803 23.3456 30.9108C23.4534 31.0186 23.514 31.1648 23.514 31.3173C23.514 31.4697 23.4534 31.616 23.3456 31.7238C23.2378 31.8316 23.0916 31.8921 22.9391 31.8921Z" fill="#DB771A"/>
<path d="M25.7285 36.9873C21.7968 34.5021 20.0435 31.9481 20.0435 28.7055V26.0396C20.0464 25.9625 20.072 25.888 20.117 25.8253C20.162 25.7626 20.2245 25.7146 20.2967 25.6873L25.7949 23.3251C25.8598 23.2976 25.9296 23.2834 26 23.2834C26.0704 23.2834 26.1402 23.2976 26.2051 23.3251L31.7033 25.6874C31.7754 25.7147 31.8379 25.7628 31.8829 25.8254C31.9279 25.8881 31.9535 25.9626 31.9564 26.0397V28.7054C31.9564 31.9479 30.2031 34.5018 26.2714 36.9873C26.1899 37.038 26.0958 37.0645 25.9999 37.064C25.904 37.0645 25.8099 37.0379 25.7285 36.9873Z" fill="white"/>
<path d="M25.2676 31.6467C25.1984 31.6468 25.1298 31.6332 25.0658 31.6067C25.0019 31.5802 24.9438 31.5413 24.8949 31.4923L23.6744 30.2717C23.5773 30.1726 23.5232 30.0391 23.5239 29.9003C23.5247 29.7615 23.5801 29.6286 23.6783 29.5304C23.7764 29.4323 23.9093 29.3768 24.0481 29.3761C24.1869 29.3754 24.3204 29.4295 24.4196 29.5266L25.2675 30.3745L27.5804 28.0618C27.6794 27.964 27.8131 27.9094 27.9523 27.9099C28.0914 27.9104 28.2247 27.9659 28.3231 28.0643C28.4215 28.1626 28.477 28.296 28.4774 28.4351C28.4779 28.5742 28.4233 28.7079 28.3256 28.807L25.6402 31.4923C25.5913 31.5413 25.5333 31.5802 25.4693 31.6067C25.4054 31.6332 25.3368 31.6468 25.2676 31.6467Z" fill="#DB771A"/>
<path d="M21.2252 26.6164V28.8392C21.2252 31.5428 22.6306 33.6723 25.7823 35.7443C25.8473 35.786 25.9228 35.8082 26 35.8082C26.0771 35.8082 26.1527 35.786 26.2176 35.7443C29.3693 33.6721 30.7747 31.5426 30.7747 28.839V26.6162C30.773 26.5529 30.7529 26.4914 30.7169 26.4392C30.6808 26.3871 30.6305 26.3465 30.5718 26.3224L26.1641 24.353C26.1124 24.3302 26.0564 24.3184 25.9998 24.3184C25.9432 24.3184 25.8872 24.3302 25.8354 24.353L21.4281 26.3226C21.3695 26.3466 21.319 26.3872 21.283 26.4394C21.247 26.4915 21.2269 26.5531 21.2252 26.6164ZM21.9598 26.8193L25.9999 25.0138L30.0401 26.8193V28.8391C30.0401 31.2513 28.7918 33.181 25.9999 35.0701C23.208 33.181 21.9598 31.2513 21.9598 28.8391V26.8193Z" fill="#DB771A"/>
<path d="M26 24.1748C26.0768 24.1748 26.1527 24.1909 26.223 24.2219L30.6304 26.1916C30.7142 26.2272 30.786 26.2863 30.837 26.3616C30.8881 26.437 30.9164 26.5255 30.9184 26.6166V28.8393C30.9184 31.5964 29.493 33.7631 26.2966 35.8647C26.2082 35.9218 26.1052 35.9523 26 35.9523C25.8947 35.9523 25.7917 35.9218 25.7033 35.8647C22.507 33.763 21.0815 31.5963 21.0815 28.8392V26.6165C21.0835 26.5255 21.1117 26.4369 21.1628 26.3616C21.2139 26.2862 21.2856 26.2272 21.3694 26.1916L25.777 24.2219C25.8472 24.1908 25.9232 24.1748 26 24.1748ZM26 35.6646C26.0491 35.6649 26.0972 35.6509 26.1385 35.6244C29.2455 33.5816 30.631 31.489 30.631 28.8391V26.6163C30.6292 26.5807 30.6171 26.5463 30.5962 26.5173C30.5752 26.4884 30.5462 26.4662 30.5129 26.4535L26.1057 24.4839C26.0723 24.4696 26.0363 24.4622 25.9999 24.4622C25.9636 24.4622 25.9276 24.4696 25.8942 24.4839L21.487 26.4535C21.4536 26.4662 21.4246 26.4884 21.4037 26.5174C21.3827 26.5463 21.3706 26.5808 21.369 26.6165V28.8392C21.369 31.4892 22.7545 33.5818 25.8613 35.6242C25.9027 35.6508 25.9508 35.6648 26 35.6646V35.6646ZM26 24.8566L30.1838 26.7263V28.8392C30.1838 31.3106 28.9183 33.269 26.0805 35.1893L26 35.2438L25.9194 35.1893C23.0816 33.269 21.8161 31.3106 21.8161 28.8392V26.7262L26 24.8566ZM29.8964 26.9126L26 25.1712L22.1035 26.9126V28.8392C22.1035 31.1818 23.3062 33.0531 26 34.8964C28.6935 33.0531 29.8964 31.1818 29.8964 28.8392V26.9126Z" fill="#DB771A"/>
</g>
<defs>
<clipPath id="clip0_2264_22501">
<rect width="32" height="32" fill="white" transform="translate(10 10)"/>
</clipPath>
</defs>
</svg>
