<svg width="36" height="36" viewBox="0 0 36 36" fill="none" xmlns="http://www.w3.org/2000/svg">
<path d="M11.7969 32.6548C13.8372 34.6951 16.8028 35.2011 19.1626 34.1279L10.3237 25.2891C9.25054 27.6489 9.75653 30.6144 11.7969 32.6548Z" fill="#003063"/>
<path opacity="0.4" d="M1.8131 16.7768L18.8343 33.798C21.5278 36.4914 25.7745 35.3196 26.057 31.805C26.182 30.2491 26.738 28.8113 27.6647 27.6473L32.8102 21.1843C35.5848 17.6993 35.8166 12.7945 33.7411 8.55782L33.8939 8.40503C35.7407 6.55822 35.7407 3.56395 33.8939 1.71714C32.0471 -0.129671 29.0528 -0.129672 27.206 1.71714L27.0532 1.86993C22.8166 -0.205529 17.9118 0.0263121 14.4268 2.80085L7.96376 7.94636C6.79973 8.87309 5.36195 9.42906 3.80604 9.5541C0.291443 9.83655 -0.880357 14.0833 1.8131 16.7768Z" fill="#8B99A7"/>
</svg>
