<svg width="12" height="12" viewBox="0 0 12 12" fill="none" xmlns="http://www.w3.org/2000/svg">
<path d="M4.05859 5.8252C4.50879 6.7549 5.26056 7.50473 6.19141 7.95254C6.26007 7.98506 6.33602 7.99913 6.41177 7.99337C6.48752 7.98762 6.56047 7.96224 6.62344 7.91973L7.99062 7.00645C8.05103 6.96548 8.12083 6.94048 8.19351 6.93379C8.26619 6.9271 8.33938 6.93892 8.40625 6.96817L10.9656 8.06739C11.0531 8.10379 11.1262 8.16795 11.1736 8.24996C11.221 8.33198 11.2402 8.42732 11.2281 8.52129C11.147 9.15443 10.838 9.73632 10.3588 10.1581C9.87971 10.5798 9.26331 10.8126 8.625 10.8127C6.65245 10.8127 4.7607 10.0291 3.36589 8.63431C1.97109 7.2395 1.1875 5.34775 1.1875 3.3752C1.18764 2.73689 1.42037 2.1205 1.84212 1.64136C2.26388 1.16223 2.84577 0.853195 3.47891 0.772076C3.57288 0.760005 3.66822 0.77916 3.75024 0.826593C3.83225 0.874025 3.89641 0.947104 3.93281 1.03458L5.03203 3.59942C5.06062 3.66523 5.07257 3.73707 5.06685 3.8086C5.06113 3.88012 5.0379 3.94914 4.99922 4.00958L4.08594 5.39864C4.04528 5.46146 4.02141 5.53367 4.01663 5.60835C4.01184 5.68304 4.02629 5.7577 4.05859 5.8252V5.8252Z" stroke="#DB771A" stroke-linecap="round" stroke-linejoin="round"/>
</svg>
