<svg width="58" height="48" viewBox="0 0 68 68" fill="none" xmlns="http://www.w3.org/2000/svg">
<g filter="url(#filter0_d_960_7101)">
<rect x="10" y="6" width="48" height="48" rx="14" fill="white"/>
</g>
<path d="M44.125 29.25H42.9719C42.7915 27.1299 41.8674 25.1418 40.3628 23.6372C38.8582 22.1326 36.8701 21.2085 34.75 21.0281V19.875C34.75 19.6761 34.671 19.4853 34.5303 19.3447C34.3897 19.204 34.1989 19.125 34 19.125C33.8011 19.125 33.6103 19.204 33.4697 19.3447C33.329 19.4853 33.25 19.6761 33.25 19.875V21.0281C31.1299 21.2085 29.1418 22.1326 27.6372 23.6372C26.1326 25.1418 25.2085 27.1299 25.0281 29.25H23.875C23.6761 29.25 23.4853 29.329 23.3447 29.4697C23.204 29.6103 23.125 29.8011 23.125 30C23.125 30.1989 23.204 30.3897 23.3447 30.5303C23.4853 30.671 23.6761 30.75 23.875 30.75H25.0281C25.2085 32.8701 26.1326 34.8582 27.6372 36.3628C29.1418 37.8674 31.1299 38.7915 33.25 38.9719V40.125C33.25 40.3239 33.329 40.5147 33.4697 40.6553C33.6103 40.796 33.8011 40.875 34 40.875C34.1989 40.875 34.3897 40.796 34.5303 40.6553C34.671 40.5147 34.75 40.3239 34.75 40.125V38.9719C36.8701 38.7915 38.8582 37.8674 40.3628 36.3628C41.8674 34.8582 42.7915 32.8701 42.9719 30.75H44.125C44.3239 30.75 44.5147 30.671 44.6553 30.5303C44.796 30.3897 44.875 30.1989 44.875 30C44.875 29.8011 44.796 29.6103 44.6553 29.4697C44.5147 29.329 44.3239 29.25 44.125 29.25ZM40.375 30.75H41.4625C41.2844 32.4695 40.52 34.0753 39.2976 35.2976C38.0753 36.52 36.4695 37.2844 34.75 37.4625V36.375C34.75 36.1761 34.671 35.9853 34.5303 35.8447C34.3897 35.704 34.1989 35.625 34 35.625C33.8011 35.625 33.6103 35.704 33.4697 35.8447C33.329 35.9853 33.25 36.1761 33.25 36.375V37.4625C31.5305 37.2844 29.9247 36.52 28.7024 35.2976C27.48 34.0753 26.7156 32.4695 26.5375 30.75H27.625C27.8239 30.75 28.0147 30.671 28.1553 30.5303C28.296 30.3897 28.375 30.1989 28.375 30C28.375 29.8011 28.296 29.6103 28.1553 29.4697C28.0147 29.329 27.8239 29.25 27.625 29.25H26.5375C26.7156 27.5305 27.48 25.9247 28.7024 24.7024C29.9247 23.48 31.5305 22.7156 33.25 22.5375V23.625C33.25 23.8239 33.329 24.0147 33.4697 24.1553C33.6103 24.296 33.8011 24.375 34 24.375C34.1989 24.375 34.3897 24.296 34.5303 24.1553C34.671 24.0147 34.75 23.8239 34.75 23.625V22.5375C36.4695 22.7156 38.0753 23.48 39.2976 24.7024C40.52 25.9247 41.2844 27.5305 41.4625 29.25H40.375C40.1761 29.25 39.9853 29.329 39.8447 29.4697C39.704 29.6103 39.625 29.8011 39.625 30C39.625 30.1989 39.704 30.3897 39.8447 30.5303C39.9853 30.671 40.1761 30.75 40.375 30.75Z" fill="#DB771A"/>
<path d="M34 33.75C36.0711 33.75 37.75 32.0711 37.75 30C37.75 27.9289 36.0711 26.25 34 26.25C31.9289 26.25 30.25 27.9289 30.25 30C30.25 32.0711 31.9289 33.75 34 33.75Z" fill="#DB771A"/>
<defs>
<filter id="filter0_d_960_7101" x="0" y="0" width="68" height="68" filterUnits="userSpaceOnUse" color-interpolation-filters="sRGB">
<feFlood flood-opacity="0" result="BackgroundImageFix"/>
<feColorMatrix in="SourceAlpha" type="matrix" values="0 0 0 0 0 0 0 0 0 0 0 0 0 0 0 0 0 0 127 0" result="hardAlpha"/>
<feOffset dy="4"/>
<feGaussianBlur stdDeviation="5"/>
<feComposite in2="hardAlpha" operator="out"/>
<feColorMatrix type="matrix" values="0 0 0 0 0 0 0 0 0 0 0 0 0 0 0 0 0 0 0.16 0"/>
<feBlend mode="normal" in2="BackgroundImageFix" result="effect1_dropShadow_960_7101"/>
<feBlend mode="normal" in="SourceGraphic" in2="effect1_dropShadow_960_7101" result="shape"/>
</filter>
</defs>
</svg>
