<svg width="36" height="38" viewBox="0 0 36 38" fill="none" xmlns="http://www.w3.org/2000/svg">
<path fill-rule="evenodd" clip-rule="evenodd" d="M17.0748 0.989366L0.574053 11.597C0.216276 11.827 0 12.2231 0 12.6484V35.0746C0 35.7649 0.559645 36.3246 1.25 36.3246C1.94036 36.3246 2.5 35.7649 2.5 35.0746V14.4228C2.5 13.7423 2.84604 13.1084 3.41848 12.7404L16.693 4.20681C17.3518 3.78329 18.1972 3.78329 18.856 4.20681L32.1305 12.7404C32.703 13.1084 33.049 13.7423 33.049 14.4228V35.0746C33.049 35.7649 33.6087 36.3246 34.299 36.3246C34.9894 36.3246 35.549 35.7649 35.549 35.0746V12.6484C35.549 12.2231 35.3327 11.827 34.975 11.597L18.4742 0.989366C18.0726 0.718423 17.5319 0.695471 17.0986 0.97407L17.0748 0.989366Z" fill="#474747"/>
<path d="M10.6924 36.2559H24.8562" stroke="#474747" stroke-width="2.5" stroke-linecap="round" stroke-linejoin="round"/>
<path fill-rule="evenodd" clip-rule="evenodd" d="M17.7743 29.7634C22.6633 29.7634 26.6267 25.8001 26.6267 20.911C26.6267 16.022 22.6633 12.0586 17.7743 12.0586C12.8852 12.0586 8.92188 16.022 8.92188 20.911C8.92188 25.8001 12.8852 29.7634 17.7743 29.7634ZM22.6234 18.6569C23.0078 18.2603 22.9979 17.6272 22.6013 17.2429C22.2047 16.8585 21.5716 16.8684 21.1873 17.265L16.1853 22.4257L14.3611 20.5436C13.9768 20.1471 13.3437 20.1372 12.9471 20.5215C12.5505 20.9059 12.5406 21.539 12.925 21.9356L15.4672 24.5585C15.6556 24.7529 15.9147 24.8625 16.1853 24.8625C16.4559 24.8625 16.715 24.7529 16.9034 24.5585L22.6234 18.6569Z" fill="#DB771A"/>
</svg>
