<svg width="24" height="24" viewBox="0 0 24 24" fill="none" xmlns="http://www.w3.org/2000/svg">
<path fill-rule="evenodd" clip-rule="evenodd" d="M20.4008 9.96296C20.4008 13.4565 21.1482 15.4324 21.7693 16.4713C21.9186 16.72 21.9981 17.0022 22 17.2898C22.0018 17.5775 21.9259 17.8606 21.7798 18.1111C21.6324 18.3602 21.4192 18.5669 21.1621 18.7101C20.905 18.8533 20.6132 18.9278 20.3166 18.9259H16.2112C16.2112 20.0064 15.7676 21.0427 14.9779 21.8067C14.1883 22.5708 13.1173 23 12.0005 23C10.8838 23 9.81278 22.5708 9.02313 21.8067C8.23348 21.0427 7.78985 20.0064 7.78985 18.9259H3.68446C3.38776 18.926 3.09631 18.8502 2.83962 18.7062C2.58293 18.5622 2.37009 18.3552 2.22266 18.1061C2.07523 17.857 1.99842 17.5746 2.00002 17.2875C2.00163 17.0004 2.08157 16.7189 2.23178 16.4713C2.85285 15.4324 3.60024 13.4565 3.60024 9.96296V9.14815C3.59886 8.07946 3.81504 7.02096 4.23645 6.03311C4.65785 5.04525 5.27623 4.14738 6.05626 3.39075C6.8363 2.63413 7.76273 2.03357 8.78264 1.62336C9.80256 1.21316 10.896 1.00134 12.0005 1H12.0637C16.6638 1.03056 20.4008 4.72778 20.4008 9.23981V9.96296ZM10.2171 20.6514C10.6903 21.1093 11.3313 21.3677 12.0005 21.3704C12.6697 21.3677 13.3107 21.1093 13.7839 20.6514C14.2571 20.1936 14.5241 19.5734 14.5269 18.9259H9.47412C9.47689 19.5734 9.74395 20.1936 10.2171 20.6514ZM14.1744 3.0333C13.9081 2.93406 13.609 3.0625 13.5064 3.32019C13.4039 3.57789 13.5366 3.86724 13.8029 3.96649C14.5632 4.24977 16.2904 5.26398 17.018 6.95839C17.6096 8.33621 17.5549 9.16167 17.5054 9.90832C17.4922 10.1081 17.4793 10.3023 17.4793 10.4999C17.4793 10.776 17.7107 10.9999 17.9961 10.9999C18.2815 10.9999 18.5129 10.776 18.5129 10.4999C18.5129 10.3536 18.5241 10.1933 18.5364 10.016C18.5894 9.25629 18.6641 8.18572 17.9724 6.57474C17.0969 4.53581 15.084 3.37224 14.1744 3.0333Z" fill="#DB771A"/>
</svg>
