<svg width="58" height="58" viewBox="0 0 58 58" fill="none" xmlns="http://www.w3.org/2000/svg">
<path fill-rule="evenodd" clip-rule="evenodd" d="M26.743 26.3401C25.7681 25.6381 25.1334 24.4932 25.1334 23.2002C25.1334 21.0647 26.8645 19.3335 29 19.3335C31.1355 19.3335 32.8667 21.0647 32.8667 23.2002C32.8667 24.4932 32.232 25.6381 31.2571 26.3401L38.1151 47.8939C38.3247 48.5527 38.0401 49.2678 37.4351 49.6024C36.8301 49.937 36.073 49.7979 35.6265 49.2701L29 41.4389L22.3736 49.2701C21.927 49.7979 21.17 49.937 20.565 49.6024C19.96 49.2678 19.6753 48.5527 19.885 47.8939L26.743 26.3401ZM30.8995 39.1941L33.15 41.8539L31.92 37.988L30.8995 39.1941ZM30.884 34.7322C30.8526 34.7631 30.8222 34.7958 30.7931 34.8302L29 36.9493L27.2069 34.8302C27.1779 34.7958 27.1475 34.7631 27.116 34.7322L29 28.811L30.884 34.7322ZM26.0801 37.988L27.1006 39.1941L24.85 41.8539L26.0801 37.988Z" fill="#003063"/>
<g opacity="0.4">
<path d="M16.3673 10.6931C16.9341 10.1274 16.935 9.20934 16.3693 8.64251C15.8036 8.07569 14.8855 8.07478 14.3187 8.64047C10.5506 12.4011 8.21667 17.605 8.21667 23.3512C8.21667 29.1648 10.6056 34.4231 14.4516 38.1935C15.0235 38.7541 15.9415 38.7449 16.5021 38.1731C17.0627 37.6012 17.0536 36.6832 16.4817 36.1226C13.1692 32.8752 11.1167 28.3542 11.1167 23.3512C11.1167 18.406 13.122 13.932 16.3673 10.6931Z" fill="#8B99A7"/>
<path d="M43.8422 8.80284C43.2816 8.23098 42.3636 8.22185 41.7917 8.78246C41.2199 9.34306 41.2107 10.2611 41.7713 10.833C44.935 14.0602 46.8833 18.4767 46.8833 23.3512C46.8833 28.2835 44.8885 32.7471 41.6581 35.984C41.0924 36.5508 41.0933 37.4689 41.6602 38.0346C42.227 38.6003 43.1451 38.5993 43.7108 38.0325C47.4616 34.2742 49.7833 29.0825 49.7833 23.3512C49.7833 17.6873 47.5158 12.5501 43.8422 8.80284Z" fill="#8B99A7"/>
</g>
<g opacity="0.7">
<path d="M21.7965 16.6762C22.3812 16.129 22.4117 15.2114 21.8645 14.6267C21.3173 14.042 20.3997 14.0116 19.815 14.5588C17.4415 16.7799 15.95 19.8765 15.95 23.3164C15.95 26.7967 17.4767 29.9253 19.8987 32.1517C20.4882 32.6936 21.4055 32.655 21.9475 32.0654C22.4894 31.4759 22.4508 30.5586 21.8612 30.0166C19.9881 28.2948 18.85 25.9215 18.85 23.3164C18.85 20.7412 19.962 18.393 21.7965 16.6762Z" fill="#003063"/>
<path d="M38.2863 14.6547C37.7076 14.1011 36.7897 14.1215 36.2362 14.7002C35.6826 15.2789 35.703 16.1968 36.2818 16.7503C38.0695 18.4603 39.15 20.7778 39.15 23.3164C39.15 25.8849 38.0437 28.2276 36.2178 29.9431C35.6341 30.4915 35.6055 31.4091 36.1539 31.9928C36.7022 32.5764 37.6199 32.605 38.2035 32.0566C40.5662 29.8368 42.05 26.7472 42.05 23.3164C42.05 19.926 40.6009 16.8686 38.2863 14.6547Z" fill="#003063"/>
</g>
</svg>
