<svg width="52" height="52" viewBox="0 0 52 52" fill="none" xmlns="http://www.w3.org/2000/svg">
<circle cx="26" cy="26" r="25.5" stroke="#DB771A"/>
<g clip-path="url(#clip0_2264_22309)">
<path d="M40.5635 24.0841C40.4486 24.0841 40.3363 24.0497 40.2411 23.9852C40.1459 23.9208 40.0723 23.8293 40.0296 23.7226L38.2093 19.1717C38.1761 19.0862 38.1177 19.0127 38.0418 18.9612C37.966 18.9096 37.8762 18.8823 37.7845 18.8829H32.2414C32.089 18.8829 31.9427 18.8223 31.8349 18.7145C31.7271 18.6067 31.6666 18.4605 31.6666 18.308C31.6666 18.1556 31.7271 18.0093 31.8349 17.9015C31.9427 17.7937 32.089 17.7332 32.2414 17.7332H37.7807C38.1033 17.7318 38.4188 17.8279 38.6859 18.0088C38.953 18.1897 39.1593 18.4471 39.2777 18.7472L41.0971 23.2958C41.1319 23.383 41.1449 23.4774 41.1348 23.5708C41.1247 23.6641 41.0919 23.7536 41.0393 23.8314C40.9867 23.9092 40.9158 23.9729 40.8328 24.017C40.7499 24.0611 40.6574 24.0842 40.5635 24.0843V24.0841Z" fill="#DB771A"/>
<path d="M32.2414 27.2046H11.4366C11.2841 27.2046 11.1379 27.1441 11.0301 27.0363C10.9223 26.9285 10.8618 26.7822 10.8618 26.6298C10.8618 26.4773 10.9223 26.3311 11.0301 26.2233C11.1379 26.1155 11.2841 26.0549 11.4366 26.0549H32.2414C32.3939 26.0549 32.5401 26.1155 32.6479 26.2233C32.7557 26.3311 32.8162 26.4773 32.8162 26.6298C32.8162 26.7822 32.7557 26.9285 32.6479 27.0363C32.5401 27.1441 32.3939 27.2046 32.2414 27.2046H32.2414Z" fill="#DB771A"/>
<path d="M33.8018 36.5669C33.0709 36.5669 32.3564 36.3502 31.7487 35.9441C31.141 35.538 30.6673 34.9609 30.3876 34.2856C30.1079 33.6103 30.0347 32.8673 30.1773 32.1504C30.3199 31.4335 30.6718 30.775 31.1887 30.2582C31.7055 29.7414 32.364 29.3894 33.0809 29.2468C33.7977 29.1042 34.5408 29.1774 35.2161 29.4571C35.8913 29.7368 36.4685 30.2105 36.8746 30.8182C37.2807 31.4259 37.4974 32.1404 37.4974 32.8714C37.4963 33.8511 37.1066 34.7905 36.4138 35.4833C35.721 36.1761 34.7816 36.5658 33.8018 36.5669ZM33.8018 30.3255C33.2983 30.3255 32.8061 30.4748 32.3874 30.7545C31.9688 31.0343 31.6424 31.4319 31.4498 31.8971C31.2571 32.3623 31.2066 32.8742 31.3049 33.368C31.4031 33.8619 31.6456 34.3155 32.0016 34.6716C32.3577 35.0276 32.8113 35.2701 33.3052 35.3683C33.799 35.4665 34.3109 35.4161 34.7761 35.2234C35.2413 35.0307 35.6389 34.7044 35.9186 34.2858C36.1984 33.8671 36.3477 33.3749 36.3477 32.8714C36.3469 32.1964 36.0785 31.5493 35.6012 31.072C35.1239 30.5947 34.4768 30.3262 33.8018 30.3255Z" fill="#DB771A"/>
<path d="M18.1982 36.5669C17.4673 36.5669 16.7528 36.3502 16.145 35.9442C15.5373 35.5381 15.0636 34.961 14.7839 34.2857C14.5041 33.6104 14.4309 32.8673 14.5735 32.1505C14.7161 31.4336 15.068 30.7751 15.5849 30.2582C16.1017 29.7414 16.7602 29.3894 17.4771 29.2468C18.1939 29.1042 18.937 29.1774 19.6123 29.4571C20.2876 29.7368 20.8647 30.2105 21.2708 30.8182C21.6769 31.4259 21.8936 32.1404 21.8936 32.8714C21.8925 33.8511 21.5028 34.7904 20.8101 35.4832C20.1173 36.176 19.178 36.5658 18.1982 36.5669ZM18.1982 30.3255C17.6947 30.3255 17.2025 30.4747 16.7838 30.7545C16.3651 31.0342 16.0388 31.4318 15.846 31.897C15.6533 32.3622 15.6029 32.8741 15.7011 33.3679C15.7993 33.8618 16.0418 34.3154 16.3978 34.6715C16.7539 35.0276 17.2075 35.27 17.7013 35.3683C18.1952 35.4665 18.7071 35.4161 19.1723 35.2234C19.6375 35.0308 20.0351 34.7044 20.3149 34.2858C20.5946 33.8671 20.7439 33.3749 20.7439 32.8714C20.7432 32.1964 20.4747 31.5493 19.9975 31.072C19.5202 30.5948 18.8732 30.3263 18.1982 30.3255Z" fill="#DB771A"/>
<path d="M30.6812 33.4461H21.3189C21.1664 33.4461 21.0202 33.3855 20.9124 33.2777C20.8046 33.1699 20.744 33.0237 20.744 32.8712C20.744 32.7188 20.8046 32.5726 20.9124 32.4648C21.0202 32.357 21.1664 32.2964 21.3189 32.2964H30.6812C30.8336 32.2964 30.9798 32.357 31.0876 32.4648C31.1955 32.5726 31.256 32.7188 31.256 32.8712C31.256 33.0237 31.1955 33.1699 31.0876 33.2777C30.9798 33.3855 30.8336 33.4461 30.6812 33.4461Z" fill="#DB771A"/>
<path d="M15.0775 33.4462H12.4768C12.0485 33.4462 11.6377 33.276 11.3348 32.9731C11.0319 32.6702 10.8618 32.2594 10.8618 31.8311V17.2677C10.8618 16.8393 11.0319 16.4285 11.3348 16.1256C11.6377 15.8227 12.0485 15.6526 12.4768 15.6526H32.2414C32.3939 15.6526 32.5401 15.7132 32.6479 15.821C32.7557 15.9288 32.8163 16.075 32.8163 16.2274V30.1667C32.8163 30.3192 32.7557 30.4654 32.6479 30.5732C32.5401 30.681 32.3939 30.7415 32.2414 30.7415C32.089 30.7415 31.9428 30.681 31.835 30.5732C31.7272 30.4654 31.6666 30.3192 31.6666 30.1667V16.8023H12.4768C12.3534 16.8023 12.235 16.8513 12.1478 16.9386C12.0605 17.0259 12.0115 17.1442 12.0115 17.2677V31.8311C12.0115 31.9545 12.0605 32.0729 12.1478 32.1601C12.2351 32.2474 12.3534 32.2965 12.4768 32.2965H15.0775C15.2299 32.2965 15.3761 32.357 15.4839 32.4648C15.5918 32.5726 15.6523 32.7189 15.6523 32.8713C15.6523 33.0238 15.5918 33.17 15.4839 33.2778C15.3761 33.3856 15.2299 33.4462 15.0775 33.4462Z" fill="#DB771A"/>
<path d="M39.5231 33.4462H36.9225C36.7701 33.4462 36.6238 33.3856 36.516 33.2778C36.4082 33.17 36.3477 33.0238 36.3477 32.8713C36.3477 32.7189 36.4082 32.5727 36.516 32.4649C36.6238 32.357 36.7701 32.2965 36.9225 32.2965H39.5231C39.6466 32.2965 39.7649 32.2474 39.8522 32.1602C39.9395 32.0729 39.9885 31.9545 39.9885 31.8311V24.084H32.2414C32.089 24.084 31.9427 24.0235 31.8349 23.9157C31.7271 23.8079 31.6666 23.6616 31.6666 23.5092C31.6666 23.3567 31.7271 23.2105 31.8349 23.1027C31.9427 22.9949 32.089 22.9343 32.2414 22.9343H40.5633C40.7158 22.9343 40.862 22.9949 40.9698 23.1027C41.0776 23.2105 41.1382 23.3567 41.1382 23.5092V31.8311C41.1382 32.2594 40.968 32.6702 40.6651 32.9731C40.3622 33.276 39.9514 33.4462 39.5231 33.4462Z" fill="#DB771A"/>
<path d="M35.8718 26.3555H34.0301C33.8777 26.3555 33.7314 26.2949 33.6236 26.1871C33.5158 26.0793 33.4553 25.9331 33.4553 25.7807C33.4553 25.6282 33.5158 25.482 33.6236 25.3742C33.7314 25.2664 33.8777 25.2058 34.0301 25.2058H35.8719C36.0243 25.2058 36.1706 25.2664 36.2784 25.3742C36.3862 25.482 36.4467 25.6282 36.4467 25.7807C36.4467 25.9331 36.3862 26.0793 36.2784 26.1871C36.1706 26.2949 36.0243 26.3555 35.8719 26.3555H35.8718Z" fill="#DB771A"/>
</g>
<defs>
<clipPath id="clip0_2264_22309">
<rect width="32" height="32" fill="white" transform="translate(10 10)"/>
</clipPath>
</defs>
</svg>
