<svg width="52" height="52" viewBox="0 0 52 52" fill="none" xmlns="http://www.w3.org/2000/svg">
<circle cx="26" cy="26" r="25.5" stroke="#DB771A"/>
<g clip-path="url(#clip0_2264_22469)">
<path d="M40.5635 27.3136C40.4486 27.3136 40.3363 27.2792 40.2411 27.2147C40.1459 27.1503 40.0723 27.0588 40.0296 26.9521L38.2093 22.4012C38.1761 22.3156 38.1177 22.2422 38.0418 22.1906C37.966 22.1391 37.8762 22.1118 37.7845 22.1124H32.2414C32.089 22.1124 31.9427 22.0518 31.8349 21.944C31.7271 21.8362 31.6666 21.69 31.6666 21.5375C31.6666 21.3851 31.7271 21.2388 31.8349 21.131C31.9427 21.0232 32.089 20.9627 32.2414 20.9627H37.7807C38.1033 20.9613 38.4188 21.0574 38.6859 21.2383C38.953 21.4192 39.1593 21.6766 39.2777 21.9766L41.0971 26.5252C41.1319 26.6125 41.1449 26.7069 41.1348 26.8003C41.1247 26.8936 41.0919 26.9831 41.0393 27.0609C40.9867 27.1387 40.9158 27.2024 40.8328 27.2465C40.7499 27.2906 40.6574 27.3137 40.5635 27.3137V27.3136Z" fill="#DB771A"/>
<path d="M32.2414 30.4341H11.4366C11.2841 30.4341 11.1379 30.3736 11.0301 30.2658C10.9223 30.1579 10.8618 30.0117 10.8618 29.8593C10.8618 29.7068 10.9223 29.5606 11.0301 29.4528C11.1379 29.345 11.2841 29.2844 11.4366 29.2844H32.2414C32.3939 29.2844 32.5401 29.345 32.6479 29.4528C32.7557 29.5606 32.8162 29.7068 32.8162 29.8593C32.8162 30.0117 32.7557 30.1579 32.6479 30.2658C32.5401 30.3736 32.3939 30.4341 32.2414 30.4341H32.2414Z" fill="#DB771A"/>
<path d="M33.8018 39.7964C33.0709 39.7964 32.3564 39.5797 31.7487 39.1736C31.141 38.7675 30.6673 38.1904 30.3876 37.5151C30.1079 36.8398 30.0347 36.0967 30.1773 35.3799C30.3199 34.663 30.6718 34.0045 31.1887 33.4877C31.7055 32.9708 32.364 32.6189 33.0809 32.4763C33.7977 32.3337 34.5408 32.4069 35.2161 32.6866C35.8913 32.9663 36.4685 33.44 36.8746 34.0477C37.2807 34.6554 37.4974 35.3699 37.4974 36.1008C37.4963 37.0806 37.1066 38.02 36.4138 38.7128C35.721 39.4056 34.7816 39.7953 33.8018 39.7964ZM33.8018 33.555C33.2983 33.555 32.8061 33.7043 32.3874 33.984C31.9688 34.2638 31.6424 34.6614 31.4498 35.1266C31.2571 35.5918 31.2066 36.1037 31.3049 36.5975C31.4031 37.0914 31.6456 37.545 32.0016 37.901C32.3577 38.2571 32.8113 38.4996 33.3052 38.5978C33.799 38.696 34.3109 38.6456 34.7761 38.4529C35.2413 38.2602 35.6389 37.9339 35.9186 37.5153C36.1984 37.0966 36.3477 36.6044 36.3477 36.1008C36.3469 35.4259 36.0785 34.7788 35.6012 34.3015C35.1239 33.8242 34.4768 33.5557 33.8018 33.555Z" fill="#DB771A"/>
<path d="M18.1982 39.7964C17.4673 39.7964 16.7528 39.5797 16.145 39.1737C15.5373 38.7676 15.0636 38.1905 14.7839 37.5152C14.5041 36.8399 14.4309 36.0968 14.5735 35.38C14.7161 34.6631 15.068 34.0046 15.5849 33.4877C16.1017 32.9709 16.7602 32.6189 17.4771 32.4763C18.1939 32.3337 18.937 32.4069 19.6123 32.6866C20.2876 32.9663 20.8647 33.4399 21.2708 34.0477C21.6769 34.6554 21.8936 35.3699 21.8936 36.1008C21.8925 37.0806 21.5028 38.0199 20.8101 38.7127C20.1173 39.4055 19.178 39.7953 18.1982 39.7964ZM18.1982 33.555C17.6947 33.5549 17.2025 33.7042 16.7838 33.984C16.3651 34.2637 16.0388 34.6613 15.846 35.1265C15.6533 35.5917 15.6029 36.1036 15.7011 36.5974C15.7993 37.0913 16.0418 37.5449 16.3978 37.901C16.7539 38.2571 17.2075 38.4995 17.7013 38.5978C18.1952 38.696 18.7071 38.6456 19.1723 38.4529C19.6375 38.2602 20.0351 37.9339 20.3149 37.5153C20.5946 37.0966 20.7439 36.6044 20.7439 36.1008C20.7432 35.4259 20.4747 34.7788 19.9975 34.3015C19.5202 33.8243 18.8732 33.5558 18.1982 33.555Z" fill="#DB771A"/>
<path d="M30.6812 36.6756H21.3189C21.1664 36.6756 21.0202 36.615 20.9124 36.5072C20.8046 36.3994 20.744 36.2532 20.744 36.1007C20.744 35.9483 20.8046 35.8021 20.9124 35.6942C21.0202 35.5864 21.1664 35.5259 21.3189 35.5259H30.6812C30.8336 35.5259 30.9798 35.5864 31.0876 35.6942C31.1955 35.8021 31.256 35.9483 31.256 36.1007C31.256 36.2532 31.1955 36.3994 31.0876 36.5072C30.9798 36.615 30.8336 36.6756 30.6812 36.6756Z" fill="#DB771A"/>
<path d="M15.0775 36.6757H12.4768C12.0485 36.6756 11.6377 36.5055 11.3348 36.2026C11.0319 35.8997 10.8618 35.4889 10.8618 35.0606V20.4972C10.8618 20.0688 11.0319 19.658 11.3348 19.3551C11.6377 19.0522 12.0485 18.8821 12.4768 18.8821H32.2414C32.3939 18.8821 32.5401 18.9426 32.6479 19.0504C32.7557 19.1583 32.8163 19.3045 32.8163 19.4569V33.3962C32.8163 33.5486 32.7557 33.6949 32.6479 33.8027C32.5401 33.9105 32.3939 33.971 32.2414 33.971C32.089 33.971 31.9428 33.9105 31.835 33.8027C31.7272 33.6949 31.6666 33.5486 31.6666 33.3962V20.0318H12.4768C12.3534 20.0318 12.235 20.0808 12.1478 20.1681C12.0605 20.2554 12.0115 20.3737 12.0115 20.4972V35.0606C12.0115 35.184 12.0605 35.3024 12.1478 35.3896C12.2351 35.4769 12.3534 35.5259 12.4768 35.526H15.0775C15.2299 35.526 15.3761 35.5865 15.4839 35.6943C15.5918 35.8021 15.6523 35.9484 15.6523 36.1008C15.6523 36.2533 15.5918 36.3995 15.4839 36.5073C15.3761 36.6151 15.2299 36.6757 15.0775 36.6757Z" fill="#DB771A"/>
<path d="M39.5231 36.6757H36.9225C36.7701 36.6757 36.6238 36.6151 36.516 36.5073C36.4082 36.3995 36.3477 36.2533 36.3477 36.1008C36.3477 35.9484 36.4082 35.8021 36.516 35.6943C36.6238 35.5865 36.7701 35.526 36.9225 35.526H39.5231C39.6466 35.526 39.7649 35.4769 39.8522 35.3897C39.9395 35.3024 39.9885 35.184 39.9885 35.0606V27.3135H32.2414C32.089 27.3135 31.9427 27.253 31.8349 27.1451C31.7271 27.0373 31.6666 26.8911 31.6666 26.7387C31.6666 26.5862 31.7271 26.44 31.8349 26.3322C31.9427 26.2244 32.089 26.1638 32.2414 26.1638H40.5633C40.7158 26.1638 40.862 26.2244 40.9698 26.3322C41.0776 26.44 41.1382 26.5862 41.1382 26.7387V35.0606C41.1382 35.4889 40.968 35.8997 40.6651 36.2026C40.3622 36.5055 39.9514 36.6756 39.5231 36.6757Z" fill="#DB771A"/>
<path d="M35.8718 29.585H34.0301C33.8777 29.585 33.7314 29.5244 33.6236 29.4166C33.5158 29.3088 33.4553 29.1626 33.4553 29.0102C33.4553 28.8577 33.5158 28.7115 33.6236 28.6037C33.7314 28.4959 33.8777 28.4353 34.0301 28.4353H35.8719C36.0243 28.4353 36.1706 28.4959 36.2784 28.6037C36.3862 28.7115 36.4467 28.8577 36.4467 29.0102C36.4467 29.1626 36.3862 29.3088 36.2784 29.4166C36.1706 29.5244 36.0243 29.585 35.8719 29.585H35.8718Z" fill="#DB771A"/>
<path d="M21.8143 31.6354C16.1174 28.0346 13.5771 24.334 13.5771 19.6354V15.7727C13.5771 15.5566 13.719 15.3589 13.9439 15.2621L21.9106 11.8393C22.0046 11.7995 22.1056 11.7791 22.2076 11.7791C22.3097 11.7791 22.4107 11.7995 22.5046 11.8393L30.4714 15.2621C30.6961 15.3591 30.8382 15.5567 30.8382 15.7727V19.6354C30.8382 24.3338 28.2978 28.0346 22.6009 31.6354C22.4829 31.7088 22.3465 31.7473 22.2075 31.7466C22.0686 31.7473 21.9323 31.7088 21.8143 31.6354Z" fill="white"/>
<path d="M21.1465 23.8041C21.0584 23.8042 20.9712 23.7868 20.8898 23.7531C20.8084 23.7194 20.7345 23.67 20.6722 23.6077L18.9036 21.8389C18.7778 21.7131 18.7072 21.5425 18.7072 21.3646C18.7072 21.1867 18.7778 21.0162 18.9036 20.8904C19.0294 20.7646 19.2 20.6939 19.3778 20.6939C19.5557 20.6939 19.7263 20.7646 19.8521 20.8904L21.1465 22.185L24.5632 18.7682C24.689 18.6424 24.8596 18.5718 25.0375 18.5718C25.2154 18.5718 25.386 18.6424 25.5117 18.7682C25.6375 18.894 25.7082 19.0646 25.7082 19.2425C25.7082 19.4203 25.6375 19.5909 25.5117 19.7167L21.6207 23.6077C21.5584 23.67 21.4845 23.7194 21.4031 23.7531C21.3218 23.7868 21.2345 23.8041 21.1465 23.8041Z" fill="#DB771A"/>
<path d="M15.2893 16.6086V19.8292C15.2893 23.7467 17.3257 26.8322 21.8924 29.8346C21.9864 29.8951 22.0959 29.9272 22.2077 29.9272C22.3195 29.9272 22.429 29.8951 22.523 29.8346C27.0896 26.8319 29.126 23.7464 29.126 19.829V16.6086C29.1235 16.5168 29.0944 16.4277 29.0422 16.3521C28.99 16.2765 28.917 16.2178 28.832 16.1829L22.4458 13.329C22.3708 13.2959 22.2897 13.2788 22.2077 13.2788C22.1256 13.2788 22.0445 13.2959 21.9695 13.329L15.5833 16.1829C15.4983 16.2177 15.4252 16.2765 15.373 16.3521C15.3208 16.4276 15.2917 16.5168 15.2893 16.6086ZM16.3537 16.9025L22.2076 14.2865L28.0615 16.9025V19.8292C28.0615 23.3242 26.2529 26.1203 22.2076 28.8577C18.1622 26.1203 16.3537 23.3242 16.3537 19.8292V16.9025Z" fill="#DB771A"/>
<path d="M22.2077 13.1831C22.3031 13.1831 22.3976 13.203 22.4849 13.2416L28.8711 16.0957C28.9733 16.1407 29.0613 16.2129 29.1254 16.3044C29.1878 16.3936 29.2215 16.4999 29.2218 16.6088V19.8292C29.2218 21.8255 28.6969 23.5914 27.6171 25.228C26.5405 26.8592 24.8913 28.3923 22.5757 29.9149C22.466 29.9857 22.3383 30.0233 22.2077 30.0233C22.0772 30.0233 21.9494 29.9857 21.8397 29.9149C19.524 28.3921 17.8749 26.859 16.7983 25.2278C15.7184 23.5915 15.1935 21.8256 15.1935 19.8292V16.6086C15.1938 16.4996 15.2274 16.3933 15.2898 16.304C15.3539 16.2126 15.4419 16.1404 15.5442 16.0955L21.9304 13.2416C22.0177 13.203 22.1122 13.1831 22.2077 13.1831ZM22.2077 29.8313C22.3008 29.8321 22.3921 29.8054 22.4703 29.7547C24.764 28.2466 26.3951 26.7314 27.4571 25.1224C27.7188 24.7269 27.9518 24.3131 28.1542 23.8842C28.35 23.4678 28.5139 23.0371 28.6447 22.5959C28.7747 22.1543 28.8717 21.7037 28.9348 21.2476C28.9991 20.7776 29.031 20.3037 29.0303 19.8293V16.6086C29.03 16.5386 29.0083 16.4704 28.968 16.413C28.9238 16.3504 28.8633 16.3011 28.793 16.2703L22.4067 13.4165C22.344 13.3889 22.2762 13.3746 22.2076 13.3746C22.1391 13.3746 22.0713 13.3889 22.0086 13.4165L15.6224 16.2704C15.5521 16.301 15.4916 16.3503 15.4474 16.4129C15.4071 16.4703 15.3854 16.5386 15.3851 16.6086V19.8293C15.3844 20.3037 15.4163 20.7776 15.4806 21.2476C15.5437 21.7036 15.6407 22.1543 15.7707 22.5959C15.9015 23.0371 16.0654 23.4677 16.2612 23.8841C16.4636 24.313 16.6966 24.7268 16.9583 25.1223C18.0202 26.7313 19.6513 28.2465 21.9451 29.7546C22.0232 29.8053 22.1145 29.832 22.2077 29.8313V29.8313ZM22.2077 14.1817L22.2468 14.1992L28.1575 16.8405V19.8293C28.1575 21.613 27.6912 23.1997 26.7321 24.6798C25.7752 26.1564 24.3129 27.549 22.2614 28.9371L22.2077 28.9734L22.154 28.9371C20.1025 27.549 18.6401 26.1564 17.6833 24.6798C16.7241 23.1995 16.2579 21.6131 16.2579 19.8293V16.8405L22.2077 14.1817ZM27.9657 16.9649L22.2077 14.3917L16.4495 16.9647V19.8294C16.4495 21.575 16.9057 23.1275 17.8441 24.5756C18.7782 26.0175 20.2061 27.3807 22.2077 28.7421C24.2092 27.3807 25.637 26.0174 26.5713 24.5756C27.5096 23.1275 27.9658 21.575 27.9658 19.8294L27.9657 16.9649Z" fill="#DB771A"/>
</g>
<defs>
<clipPath id="clip0_2264_22469">
<rect width="32" height="32" fill="white" transform="translate(10 10)"/>
</clipPath>
</defs>
</svg>
