<svg width="24" height="24" viewBox="0 0 24 24" fill="none" xmlns="http://www.w3.org/2000/svg">
<g clip-path="url(#clip0_1546_16297)">
<path d="M14.2275 21.9881H5.67665C5.37398 21.9887 5.07429 21.9282 4.79555 21.8103C4.66097 21.7533 4.53223 21.6834 4.41112 21.6016C4.29093 21.5203 4.17876 21.4277 4.07613 21.3252C3.97357 21.2226 3.88104 21.1104 3.79977 20.9902C3.71793 20.8691 3.64806 20.7404 3.59113 20.6058C3.47308 20.3271 3.41256 20.0274 3.41318 19.7247V4.16777C3.41256 3.86513 3.47308 3.56545 3.5911 3.28676C3.64803 3.15216 3.7179 3.02344 3.79973 2.90236C3.881 2.78215 3.97354 2.66994 4.07609 2.56729C4.17873 2.46475 4.2909 2.37221 4.41108 2.29095C4.53218 2.20913 4.66093 2.13926 4.79551 2.08229C5.07426 1.96428 5.37396 1.90374 5.67665 1.9043H14.2275C14.5302 1.90372 14.8299 1.96424 15.1087 2.08222C15.2432 2.13917 15.372 2.20904 15.4931 2.29088C15.6133 2.37213 15.7255 2.46467 15.8282 2.56722C15.9307 2.66988 16.0232 2.78208 16.1045 2.90229C16.1863 3.02338 16.2562 3.1521 16.3132 3.28669C16.4312 3.56541 16.4917 3.86511 16.491 4.16777V11.8839L16.1321 10.5446C16.0733 10.3307 15.971 10.1313 15.8316 9.95877C15.6922 9.78624 15.5187 9.64433 15.3219 9.54194C15.1592 9.45643 14.9838 9.39752 14.8024 9.36746V4.16777C14.8022 4.01537 14.7416 3.86924 14.6338 3.76148C14.5261 3.65371 14.38 3.5931 14.2275 3.59292H5.67665C5.52425 3.5931 5.37814 3.65371 5.27037 3.76148C5.16261 3.86924 5.10198 4.01537 5.1018 4.16777V19.7247C5.10198 19.8771 5.16261 20.0232 5.27037 20.131C5.37814 20.2387 5.52425 20.2993 5.67665 20.2995H14.2275C14.3088 20.2997 14.3892 20.2824 14.4633 20.249C14.5349 20.2167 14.5991 20.1701 14.652 20.112C15.1989 20.4074 15.7396 20.5752 16.3049 20.6249C16.2184 20.8241 16.1037 21.0098 15.9643 21.1763C15.8256 21.3421 15.6641 21.4873 15.4845 21.6075C15.1126 21.8564 14.675 21.9889 14.2275 21.9881ZM16.491 19.2707C16.2194 19.2527 15.952 19.1938 15.698 19.096H16.491V19.2706V19.2707ZM15.1327 12.09H14.8024V10.8673C14.8068 10.8772 14.8104 10.8875 14.8132 10.898L15.1326 12.09H15.1327Z" fill="#003063"/>
<path d="M13.9972 10.204C14.3512 10.1091 14.7285 10.1587 15.0459 10.3419C15.3634 10.5251 15.5951 10.827 15.69 11.181L16.0394 12.484C16.13 12.4367 16.2256 12.3995 16.3244 12.3731C16.4997 12.3256 16.6826 12.3133 16.8627 12.337C17.0427 12.3606 17.2162 12.4198 17.3733 12.511C17.4516 12.5561 17.5253 12.6087 17.5934 12.6681C17.7736 12.5283 17.9854 12.4352 18.2102 12.3971C18.435 12.359 18.6657 12.3771 18.8819 12.4498C19.098 12.5224 19.2928 12.6474 19.4489 12.8135C19.605 12.9797 19.7177 13.1818 19.7768 13.402L20.2134 15.0306C20.4821 16.0325 20.3417 17.1001 19.8232 17.9985C19.3047 18.897 18.4505 19.5526 17.4486 19.8213C15.3384 20.387 14.0496 19.3916 11.9659 16.9447C11.7141 16.6837 11.5748 16.3342 11.5782 15.9716C11.5815 15.6089 11.7272 15.2621 11.9838 15.0058C12.2247 14.7651 12.546 14.6218 12.8861 14.6032C13.2262 14.5847 13.5612 14.6923 13.8269 14.9054L13.0202 11.8968C12.9253 11.5428 12.9749 11.1655 13.1581 10.8481C13.3414 10.5306 13.6432 10.2989 13.9972 10.204ZM15.3474 14.0659L14.6488 11.4602C14.6385 11.4216 14.6206 11.3854 14.5963 11.3538C14.572 11.3221 14.5417 11.2955 14.5071 11.2755C14.4725 11.2556 14.4343 11.2426 14.3948 11.2374C14.3552 11.2322 14.3149 11.2349 14.2764 11.2452C14.2378 11.2555 14.2017 11.2734 14.17 11.2977C14.1383 11.322 14.1117 11.3523 14.0918 11.3869C14.0718 11.4215 14.0589 11.4597 14.0536 11.4993C14.0484 11.5388 14.0511 11.5791 14.0614 11.6176L15.3856 16.5564C15.4164 16.671 15.4085 16.7927 15.363 16.9024C15.3176 17.0121 15.2373 17.1037 15.1344 17.163C15.0316 17.2224 14.912 17.2461 14.7943 17.2305C14.6766 17.2149 14.5674 17.1609 14.4835 17.0769L13.1771 15.7687C13.1489 15.7403 13.1153 15.7177 13.0782 15.7024C13.0412 15.687 13.0015 15.6791 12.9614 15.6792C12.8806 15.6795 12.803 15.7115 12.7456 15.7684C12.7172 15.7968 12.6947 15.8304 12.6794 15.8674C12.664 15.9044 12.6561 15.9441 12.6561 15.9842C12.6561 16.0243 12.6639 16.064 12.6792 16.101C12.6946 16.138 12.717 16.1717 12.7454 16.2C12.7555 16.2102 12.7652 16.2207 12.7745 16.2317C14.8498 18.6706 15.7124 19.1708 17.1694 18.7801C17.5288 18.6837 17.8657 18.5175 18.1608 18.291C18.4559 18.0644 18.7036 17.782 18.8896 17.4597C19.0755 17.1375 19.1962 16.7818 19.2447 16.4129C19.2932 16.044 19.2686 15.6691 19.1722 15.3098L18.7356 13.6812C18.7147 13.6033 18.6637 13.5369 18.5939 13.4966C18.524 13.4562 18.441 13.4453 18.3631 13.4662C18.2853 13.4871 18.2189 13.5381 18.1785 13.6079C18.1382 13.6778 18.1273 13.7608 18.1482 13.8386C18.1852 13.9767 18.1659 14.1238 18.0944 14.2476C18.023 14.3715 17.9053 14.4618 17.7672 14.4988C17.6291 14.5358 17.482 14.5165 17.3582 14.445C17.2344 14.3736 17.144 14.2559 17.107 14.1178L16.976 13.6292C16.9551 13.5514 16.9042 13.4849 16.8343 13.4446C16.7645 13.4043 16.6815 13.3934 16.6036 13.4143C16.5257 13.4352 16.4593 13.4862 16.419 13.556C16.3787 13.6258 16.3678 13.7088 16.3886 13.7867C16.4257 13.9248 16.4063 14.0719 16.3349 14.1957C16.2634 14.3195 16.1457 14.4099 16.0076 14.4469C15.8695 14.4839 15.7224 14.4646 15.5986 14.3931C15.4748 14.3217 15.3845 14.204 15.3474 14.0659Z" fill="#DB771A"/>
<path fill-rule="evenodd" clip-rule="evenodd" d="M7.54014 4.94618C7.54013 4.86758 7.5556 4.78975 7.58568 4.71713C7.61575 4.6445 7.65984 4.57852 7.71542 4.52294C7.771 4.46736 7.83699 4.42327 7.90961 4.3932C7.98223 4.36312 8.06006 4.34765 8.13867 4.34766H11.7656C11.9235 4.34888 12.0746 4.41248 12.1858 4.52459C12.2971 4.63669 12.3595 4.78823 12.3595 4.94617C12.3595 5.1041 12.2971 5.25564 12.1858 5.36775C12.0746 5.47985 11.9235 5.54345 11.7656 5.54467H8.13867C8.06007 5.54468 7.98223 5.52921 7.90962 5.49914C7.837 5.46906 7.77101 5.42498 7.71543 5.3694C7.65985 5.31383 7.61577 5.24785 7.58569 5.17523C7.55561 5.10261 7.54013 5.02478 7.54014 4.94618Z" fill="#DB771A"/>
<path d="M9.9521 19.1139C10.5871 19.1139 11.1018 18.5991 11.1018 17.9642C11.1018 17.3292 10.5871 16.8145 9.9521 16.8145C9.31713 16.8145 8.80239 17.3292 8.80239 17.9642C8.80239 18.5991 9.31713 19.1139 9.9521 19.1139Z" fill="#DB771A"/>
</g>
<defs>
<clipPath id="clip0_1546_16297">
<rect width="24" height="24" fill="white"/>
</clipPath>
</defs>
</svg>
